<svg width="31" height="27" viewBox="0 0 31 27" fill="none" xmlns="http://www.w3.org/2000/svg">
<path d="M30.2105 7.64734C30.1136 7.53254 29.9928 7.4403 29.8566 7.37706C29.7203 7.31383 29.5719 7.28113 29.4216 7.28125H24.188C23.9385 5.42673 23.0252 3.72555 21.6172 2.493C20.2093 1.26045 18.4022 0.58013 16.531 0.578125H14.4685C12.5973 0.58013 10.7902 1.26045 9.38228 2.493C7.97433 3.72555 7.06097 5.42673 6.81147 7.28125H1.57788C1.42765 7.28113 1.27921 7.31383 1.14294 7.37706C1.00667 7.4403 0.885866 7.53254 0.78897 7.64734C0.688721 7.76171 0.615007 7.89683 0.57311 8.04302C0.531213 8.18922 0.522169 8.34287 0.546626 8.49297L3.29491 24.1164C3.43558 24.8933 3.84562 25.5958 4.45294 26.1003C5.06026 26.6048 5.82599 26.8791 6.61553 26.875H24.384C25.1716 26.8753 25.9342 26.5986 26.5385 26.0934C27.1427 25.5881 27.55 24.8865 27.6891 24.1112L30.4529 8.49297C30.4773 8.34287 30.4683 8.18922 30.4264 8.04302C30.3845 7.89683 30.3108 7.76171 30.2105 7.64734ZM14.4685 2.64062H16.531C17.8558 2.64143 19.1385 3.10594 20.1566 3.95359C21.1748 4.80124 21.864 5.97854 22.1049 7.28125H8.89459C9.13547 5.97854 9.82475 4.80124 10.8429 3.95359C11.861 3.10594 13.1437 2.64143 14.4685 2.64062ZM25.6627 23.7503C25.6073 24.0489 25.449 24.3186 25.2154 24.5127C24.9818 24.7067 24.6876 24.8128 24.384 24.8125H6.61553C6.3166 24.815 6.0261 24.7134 5.79377 24.5253C5.56144 24.3372 5.40172 24.0742 5.34194 23.7812L2.80506 9.34375H28.1944L25.6627 23.7503Z" fill="#6C6C6C"/>
</svg>
