<svg width="182" height="182" viewBox="0 0 182 182" fill="none" xmlns="http://www.w3.org/2000/svg">
<path d="M133.141 102.384V124.516L91.9158 148.363L50.665 124.516V102.384" stroke="#856E71" stroke-width="3" stroke-miterlimit="10" stroke-linecap="round" stroke-linejoin="round"/>
<path d="M133.141 76.901L91.9158 53.1064L50.665 76.901" stroke="#856E71" stroke-width="3" stroke-miterlimit="10" stroke-linecap="round" stroke-linejoin="round"/>
<path d="M50.665 76.9009L91.9158 100.721V148.362" stroke="#856E71" stroke-width="3" stroke-miterlimit="10" stroke-linecap="round" stroke-linejoin="round"/>
<path d="M91.916 100.721L133.141 76.9009" stroke="#856E71" stroke-width="3" stroke-miterlimit="10" stroke-linecap="round" stroke-linejoin="round"/>
<path d="M133.141 76.9011L144.596 58.4837L103.346 34.6372L91.916 53.1065" stroke="#856E71" stroke-width="3" stroke-miterlimit="10" stroke-linecap="round" stroke-linejoin="round"/>
<path d="M92.5913 101.864L103.372 120.749L143.921 95.7339L133.141 76.9009" stroke="#856E71" stroke-width="3" stroke-miterlimit="10" stroke-linecap="round" stroke-linejoin="round"/>
<path d="M91.6041 101.864L80.8238 120.749L40.2744 95.7339L51.0547 76.9009" stroke="#856E71" stroke-width="3" stroke-miterlimit="10" stroke-linecap="round" stroke-linejoin="round"/>
<path d="M51.0548 76.9011L39.5991 58.4837L80.8499 34.6372L92.2796 53.1065" stroke="#856E71" stroke-width="3" stroke-miterlimit="10" stroke-linecap="round" stroke-linejoin="round"/>
<circle cx="91" cy="91" r="89.5" stroke="#856E71" stroke-width="3"/>
</svg>
