<svg width="39" height="39" viewBox="0 0 39 39" fill="none" xmlns="http://www.w3.org/2000/svg">
<g clip-path="url(#clip0_1082_30)">
<path d="M38.6187 19.5C38.6187 30.0603 30.0599 38.6191 19.4995 38.6191C8.93918 38.6191 0.380371 30.0603 0.380371 19.5C0.380371 8.93966 8.93918 0.380859 19.4995 0.380859C30.0599 0.380859 38.6187 8.93966 38.6187 19.5Z" stroke="white"/>
<path d="M24.4492 15.7471H21.0748V13.5381C21.0748 12.7078 21.6232 12.5174 22.0117 12.5174C22.4002 12.5174 24.3883 12.5174 24.3883 12.5174V8.86875L21.1129 8.85352C17.4795 8.85352 16.6492 11.5729 16.6492 13.3172V15.7471H14.5469V19.51H16.6492C16.6492 24.3393 16.6492 30.1512 16.6492 30.1512H21.0748C21.0748 30.1512 21.0748 24.2783 21.0748 19.51H24.0607L24.4492 15.7471Z" fill="white"/>
</g>
<defs>
<clipPath id="clip0_1082_30">
<rect width="39" height="39" fill="white"/>
</clipPath>
</defs>
</svg>
