<svg width="35" height="27" viewBox="0 0 35 27" fill="none" xmlns="http://www.w3.org/2000/svg">
<path d="M9.25832 7.01831L9.50151 7.01361C9.7447 7.00892 9.86629 7.00657 9.98788 7.00422L9.82748 8.1268L8.61543 8.03826C9.35922 4.1057 13.1118 1.01061 17.6108 0.923713C22.1097 0.836816 25.6527 3.79099 26.1249 7.70007L24.905 7.83558L24.8223 6.71769C24.9439 6.71534 25.0654 6.71299 25.3086 6.7083C30.1724 6.61435 34.0608 10.1216 33.9016 14.7146C33.7425 19.3075 29.7274 22.9674 24.742 23.0637C23.5261 23.0872 22.4395 22.8843 21.4784 22.567L21.9997 21.5494L22.8237 22.3171C21.1964 23.6919 19.1022 24.516 16.7919 24.5607C14.4816 24.6053 12.4417 23.861 10.9076 22.5473L11.7859 21.7467L12.2373 22.7455C11.253 23.1004 10.0293 23.3479 8.93492 23.369C4.07119 23.463 0.182791 19.9557 0.341903 15.3628C0.493253 10.9939 4.38683 7.3363 9.01514 7.02301C9.13673 7.02066 9.86629 7.00657 9.98788 7.00422L9.65932 9.47343C7.83542 9.50866 5.996 9.99198 4.86673 11.0213C3.61199 12.1651 2.95358 13.6331 2.89925 15.2014C2.84103 16.8818 3.52014 18.324 4.57955 19.3111C5.75668 20.4078 7.31799 20.9374 9.0203 20.9045C9.87145 20.8881 10.7265 20.7596 11.4677 20.4095L12.205 20.1713L12.7974 20.6077C13.8569 21.5947 15.4182 22.1243 16.9989 22.0938C18.7012 22.0609 20.1797 21.4726 21.309 20.4433L21.9325 19.9834L22.6465 20.4174C23.3683 20.6274 24.2117 20.835 25.0628 20.8186C26.8867 20.7833 28.4907 20.0807 29.62 19.0513C30.8748 17.9076 31.5332 16.4395 31.5875 14.8712C31.6418 13.3029 30.9666 11.7486 29.9072 10.7616C28.7301 9.66482 27.1688 9.13524 25.4664 9.16812C25.3449 9.17047 25.2233 9.17281 25.1017 9.17516L24.0034 9.30832L23.9168 8.30246C23.5313 5.39924 21.0516 3.32012 17.7686 3.38353C14.4855 3.44694 11.8545 5.73673 11.2711 8.54671L11.1146 9.55727L10.0241 9.46639C9.90251 9.46874 9.65932 9.47343 9.65932 9.47343L9.70589 8.12915" fill="#BABABA"/>
<path d="M14.3545 21.2497C14.5899 21.469 14.8214 21.8004 15.1784 22.0174C15.0762 21.4596 15.0957 20.8995 15.1151 20.3394C15.2199 17.3147 17.2507 14.8127 17.2507 14.8127C17.2507 14.8127 19.1108 17.2396 19.006 20.2642C18.9866 20.8243 18.9672 21.3844 18.8262 21.9469C19.0772 21.7182 19.332 21.3774 19.583 21.1486C21.967 18.9756 25.2655 18.4641 25.2655 18.4641C25.2655 18.4641 24.6743 21.4981 22.2903 23.6712C21.1611 24.7005 17.5689 26.673 16.7177 26.6895C15.8666 26.7059 12.4064 24.8696 11.3469 23.8826C9.11042 21.7987 8.72884 18.7835 8.72884 18.7835C8.72884 18.7835 12.1179 19.1658 14.3545 21.2497Z" fill="#BABABA"/>
</svg>
