<svg width="35" height="35" viewBox="0 0 35 35" fill="none" xmlns="http://www.w3.org/2000/svg">
<g clip-path="url(#clip0_1086_33)">
<path d="M29.8739 5.12572C26.7053 1.95788 22.3353 0 17.4998 0C12.6643 0 8.29432 1.95788 5.12572 5.12572C1.95754 8.29466 0 12.6743 0 17.4998C0 22.3353 1.95754 26.7053 5.12572 29.8742C8.29432 33.0424 12.6643 35 17.4998 35C22.3353 35 26.7053 33.0424 29.8739 29.8742C33.0421 26.7053 35 22.3353 35 17.4998C35 12.6743 33.0421 8.29466 29.8739 5.12572Z" fill="#6C6C6C"/>
</g>
<g clip-path="url(#clip1_1086_33)">
<path fill-rule="evenodd" clip-rule="evenodd" d="M17.502 18.7002C19.7769 18.7002 21.627 16.8494 21.627 14.5752C21.627 12.3009 19.7769 10.4502 17.502 10.4502C15.227 10.4502 13.377 12.3003 13.377 14.5752C13.377 16.8501 15.227 18.7002 17.502 18.7002ZM17.502 11.1377C19.3981 11.1377 20.9395 12.6791 20.9395 14.5752C20.9395 16.4713 19.3981 18.0127 17.502 18.0127C15.6058 18.0127 14.0645 16.4713 14.0645 14.5752C14.0645 12.6791 15.6058 11.1377 17.502 11.1377Z" fill="white"/>
<path fill-rule="evenodd" clip-rule="evenodd" d="M17.5 6.5C12.9501 6.5 9.25 10.1548 9.25 14.7507C9.25 19.5632 13.3757 24.4864 16.3835 27.9466C16.3945 27.9603 16.8771 28.5 17.4739 28.5C17.4752 28.5 17.5241 28.5 17.5268 28.5C18.1229 28.5 18.6062 27.9603 18.6172 27.9466C21.6264 24.4864 25.7514 19.5639 25.7514 14.7507C25.7514 10.1548 22.0506 6.5 17.5 6.5ZM17.5804 27.0446C17.566 27.0583 17.5241 27.0886 17.4876 27.1119C17.4808 27.0934 17.4299 27.0528 17.3989 27.0205C14.8792 24.1213 10.625 19.2284 10.625 14.7507C10.625 10.9598 13.7098 7.875 17.5 7.875C21.2922 7.875 24.3764 10.9598 24.3764 14.7514C24.3764 19.2284 20.1221 24.1213 17.5804 27.0446Z" fill="white"/>
</g>
<defs>
<clipPath id="clip0_1086_33">
<rect width="35" height="35" fill="white"/>
</clipPath>
<clipPath id="clip1_1086_33">
<rect width="22" height="22" fill="white" transform="translate(6.5 6.5)"/>
</clipPath>
</defs>
</svg>
