<svg width="37" height="37" viewBox="0 0 37 37" fill="none" xmlns="http://www.w3.org/2000/svg">
<path d="M29.8739 5.12572C26.7053 1.95788 22.3353 0 17.4998 0C12.6643 0 8.29432 1.95788 5.12572 5.12572C1.95754 8.29466 0 12.6743 0 17.4998C0 22.3353 1.95754 26.7053 5.12572 29.8742C8.29432 33.0424 12.6643 35 17.4998 35C22.3353 35 26.7053 33.0424 29.8739 29.8742C33.0421 26.7053 35 22.3353 35 17.4998C35 12.6743 33.0421 8.29466 29.8739 5.12572Z" fill="#6C6C6C"/>
<path fill-rule="evenodd" clip-rule="evenodd" d="M27.7327 12.3443C27.4562 12.1397 26.4627 12.1397 25.4794 12.1397C24.4754 12.1601 23.4714 12.1601 23.2356 12.2524C23.0211 12.3342 22.5395 13.502 21.9149 14.7001C21.1973 16.053 20.3271 17.3638 19.7736 17.3427C19.0465 17.3427 19.2209 15.1201 19.272 13.4713C19.2819 12.3954 19.1079 12.047 18.9543 11.9554C18.5752 11.6888 17.5306 11.4333 17.5306 11.4333C17.5306 11.4333 14.3955 11.1972 13.9555 12.5494C14.5597 12.6315 15.5842 12.4465 15.1847 16.636C15.154 16.8414 14.7031 18.562 13.2485 16.2365C12.8796 15.6531 11.487 12.1601 10.9952 12.1397C9.38623 12.1087 7.78894 12.0371 7.23618 12.3443C6.71334 12.6519 7.93232 15.0486 9.99145 18.2654C11.6606 20.908 13.433 22.9569 16.5061 23.4688C17.0898 23.5308 18.5857 23.5914 19.0673 23.3667C19.3843 23.2127 18.9848 20.939 20.0812 20.7131C20.5628 20.6213 22.4366 23.0902 23.1433 23.3667C23.5746 23.5407 24.5166 23.6122 25.4794 23.571C26.5243 23.5407 27.7119 23.6739 27.8246 22.9569C28.0811 21.3896 24.6603 19.3402 24.5676 18.3778C24.4856 17.6813 25.8176 16.4011 26.4932 15.4174C27.3328 14.2291 28.2556 12.7953 27.7327 12.3443Z" fill="white"/>
</svg>
