<svg width="35" height="35" viewBox="0 0 35 35" fill="none" xmlns="http://www.w3.org/2000/svg">
<circle cx="17.5" cy="17.5" r="17.5" fill="#6C6C6C"/>
<path d="M21.5078 8.88098C22.7386 8.88098 23.9189 9.36824 24.7892 10.2356C25.6595 11.1029 26.1484 12.2792 26.1484 13.5058V21.4942C26.1484 22.7208 25.6595 23.8971 24.7892 24.7644C23.9189 25.6318 22.7386 26.119 21.5078 26.119H13.4922C12.2614 26.119 11.0811 25.6318 10.2108 24.7644C9.34048 23.8971 8.85156 22.7208 8.85156 21.4942V13.5058C8.85156 12.2792 9.34048 11.1029 10.2108 10.2356C11.0811 9.36824 12.2614 8.88098 13.4922 8.88098H21.5078ZM21.5078 7.19922H13.4922C11.8154 7.20421 10.2087 7.87026 9.02306 9.05189C7.83739 10.2335 7.16907 11.8347 7.16406 13.5058V21.4942C7.16907 23.1653 7.83739 24.7665 9.02306 25.9481C10.2087 27.1297 11.8154 27.7958 13.4922 27.8008H21.5078C23.1846 27.7958 24.7913 27.1297 25.9769 25.9481C27.1626 24.7665 27.8309 23.1653 27.8359 21.4942V13.5058C27.8309 11.8347 27.1626 10.2335 25.9769 9.05189C24.7913 7.87026 23.1846 7.20421 21.5078 7.19922V7.19922Z" fill="white"/>
<path d="M23.0134 10.7729C22.7743 10.7729 22.5406 10.8436 22.3419 10.976C22.1431 11.1083 21.9882 11.2964 21.8967 11.5165C21.8052 11.7366 21.7813 11.9788 21.8279 12.2125C21.8745 12.4462 21.9897 12.6608 22.1587 12.8293C22.3277 12.9977 22.5431 13.1124 22.7776 13.1589C23.012 13.2054 23.255 13.1815 23.4759 13.0904C23.6968 12.9992 23.8855 12.8448 24.0183 12.6467C24.1511 12.4486 24.222 12.2157 24.222 11.9775C24.222 11.8193 24.1908 11.6627 24.13 11.5165C24.0693 11.3704 23.9803 11.2376 23.868 11.1258C23.7558 11.0139 23.6225 10.9252 23.4759 10.8646C23.3293 10.8041 23.1721 10.7729 23.0134 10.7729V10.7729Z" fill="white"/>
<path d="M17.5567 13.8146C18.2945 13.8142 19.0158 14.0318 19.6294 14.4401C20.2431 14.8483 20.7214 15.4288 21.0039 16.108C21.2864 16.7872 21.3605 17.5347 21.2166 18.2558C21.0728 18.977 20.7176 19.6395 20.1959 20.1594C19.6742 20.6793 19.0095 21.0333 18.2859 21.1766C17.5623 21.32 16.8122 21.2462 16.1307 20.9646C15.4491 20.6831 14.8667 20.2064 14.4571 19.5948C14.0475 18.9833 13.829 18.2644 13.8295 17.5292C13.8311 16.5445 14.2244 15.6007 14.923 14.9044C15.6216 14.2081 16.5687 13.8163 17.5567 13.8146V13.8146ZM17.5567 12.1328C16.4857 12.1349 15.4394 12.4533 14.5499 13.0479C13.6605 13.6424 12.9678 14.4864 12.5595 15.4731C12.1512 16.4599 12.0455 17.5451 12.2559 18.5917C12.4663 19.6382 12.9832 20.5991 13.7414 21.353C14.4996 22.1068 15.465 22.6198 16.5157 22.827C17.5663 23.0342 18.655 22.9264 19.6441 22.5172C20.6333 22.1079 21.4785 21.4157 22.073 20.5279C22.6675 19.64 22.9846 18.5965 22.9841 17.5292C22.9839 16.8195 22.8432 16.1169 22.5702 15.4615C22.2972 14.8061 21.8972 14.2107 21.3931 13.7095C20.889 13.2083 20.2907 12.8111 19.6324 12.5405C18.9741 12.27 18.2688 12.1314 17.5567 12.1328V12.1328Z" fill="white"/>
</svg>
