<svg width="35" height="35" viewBox="0 0 35 35" fill="none" xmlns="http://www.w3.org/2000/svg">
<path d="M29.8739 5.12572C26.7053 1.95788 22.3353 0 17.4998 0C12.6643 0 8.29432 1.95788 5.12572 5.12572C1.95754 8.29466 0 12.6743 0 17.4998C0 22.3353 1.95754 26.7053 5.12572 29.8742C8.29432 33.0424 12.6643 35 17.4998 35C22.3353 35 26.7053 33.0424 29.8739 29.8742C33.0421 26.7053 35 22.3353 35 17.4998C35 12.6743 33.0421 8.29466 29.8739 5.12572Z" fill="#6C6C6C"/>
<path d="M28.4253 22.276C28.303 22.0662 27.936 21.9163 27.3856 21.6466C26.8352 21.3768 24.1748 20.118 23.6855 19.9382C23.1962 19.7584 22.8293 19.6684 22.4623 20.2079C22.0954 20.7474 21.0557 21.9163 20.7499 22.276C20.4441 22.6356 20.1077 22.6656 19.5879 22.3959C19.0375 22.1261 17.2945 21.5866 15.2151 19.7883C13.5944 18.3797 12.5241 16.6713 12.1877 16.1318C11.8819 15.5923 12.1572 15.3226 12.4324 15.0528C12.677 14.8131 12.9828 14.4234 13.258 14.1237C13.5332 13.824 13.625 13.5842 13.8084 13.2545C13.9919 12.8949 13.9002 12.5952 13.7778 12.3254C13.6555 12.0557 12.5547 9.44815 12.096 8.39915C11.6373 7.35014 11.1786 7.52997 10.8728 7.52997C10.567 7.52997 10.2001 7.5 9.83313 7.5C9.46618 7.5 8.88518 7.61989 8.39591 8.15937C7.90664 8.69886 6.5 9.95766 6.5 12.5652C6.5 15.1727 8.45707 17.6903 8.73228 18.02C9.00749 18.3797 12.4935 23.8944 18.0284 25.9924C23.5632 28.1204 23.5632 27.4011 24.5417 27.3112C25.5508 27.2213 27.7525 26.0224 28.2112 24.7936C28.5476 23.5647 28.5476 22.4858 28.4253 22.276Z" fill="white"/>
</svg>
