<svg width="39" height="39" viewBox="0 0 39 39" fill="none" xmlns="http://www.w3.org/2000/svg">
<g clip-path="url(#clip0_1081_29)">
<path d="M19.5004 13.6C16.2322 13.6 13.6 16.2322 13.6 19.5004C13.6 22.7686 16.2322 25.4007 19.5004 25.4007C22.7686 25.4007 25.4007 22.7686 25.4007 19.5004C25.4007 16.2322 22.7686 13.6 19.5004 13.6ZM19.5004 23.3339C17.3893 23.3339 15.6669 21.6114 15.6669 19.5004C15.6669 17.3893 17.3893 15.6669 19.5004 15.6669C21.6114 15.6669 23.3339 17.3893 23.3339 19.5004C23.3339 21.6114 21.6114 23.3339 19.5004 23.3339ZM27.0172 13.3616C27.0172 14.13 26.3989 14.7395 25.6392 14.7395C24.8708 14.7395 24.2613 14.1212 24.2613 13.3616C24.2613 12.6019 24.8796 11.9836 25.6392 11.9836C26.3989 11.9836 27.0172 12.6019 27.0172 13.3616ZM30.9213 14.7571C30.833 12.9111 30.409 11.2858 29.0664 9.9344C27.7238 8.5918 26.0897 8.16782 24.2436 8.0795C22.3446 7.9735 16.6562 7.9735 14.7571 8.0795C12.9199 8.16782 11.2858 8.5918 9.9344 9.9344C8.58297 11.277 8.16782 12.9111 8.0795 14.7571C7.9735 16.6562 7.9735 22.3446 8.0795 24.2436C8.16782 26.0897 8.5918 27.715 9.9344 29.0664C11.2858 30.409 12.9111 30.833 14.7571 30.9213C16.6562 31.0273 22.3446 31.0273 24.2436 30.9213C26.0897 30.833 27.715 30.409 29.0664 29.0664C30.409 27.7238 30.833 26.0897 30.9213 24.2436C31.0273 22.3446 31.0273 16.6562 30.9213 14.7571ZM28.4657 26.284C28.0683 27.291 27.291 28.0683 26.2752 28.4746C24.7648 29.0752 21.1698 28.9339 19.4916 28.9339C17.8221 28.9339 14.2183 29.0664 12.7079 28.4746C11.701 28.0771 10.9237 27.2998 10.5174 26.284C9.91673 24.7736 10.0581 21.1786 10.0581 19.5004C10.0581 17.8221 9.92557 14.2272 10.5174 12.7168C10.9148 11.7098 11.6921 10.9325 12.7079 10.5262C14.2183 9.92556 17.8133 10.0669 19.4916 10.0669C21.161 10.0669 24.7648 9.9344 26.2752 10.5262C27.2821 10.9237 28.0594 11.701 28.4657 12.7168C29.0664 14.2272 28.9251 17.8221 28.9251 19.5004C28.9251 21.1786 29.0664 24.7736 28.4657 26.284Z" fill="white"/>
<path d="M19.5 39C14.2898 39 9.39199 36.9738 5.71289 33.2871C2.02617 29.608 0 24.7102 0 19.5C0 14.2898 2.02617 9.39199 5.71289 5.71289C9.39961 2.03379 14.2898 0 19.5 0C24.7102 0 29.608 2.02617 33.2871 5.71289C36.9738 9.39961 39 14.2898 39 19.5C39 24.7102 36.9738 29.608 33.2871 33.2871C29.608 36.9738 24.7102 39 19.5 39ZM19.5 0.746484C14.4879 0.746484 9.78047 2.69648 6.23848 6.23848C2.69648 9.78047 0.746484 14.4879 0.746484 19.5C0.746484 24.5121 2.69648 29.2195 6.23848 32.7615C9.78047 36.3035 14.4879 38.2535 19.5 38.2535C24.5121 38.2535 29.2195 36.3035 32.7615 32.7615C36.3035 29.2195 38.2535 24.5121 38.2535 19.5C38.2535 14.4879 36.3035 9.78047 32.7615 6.23848C29.2195 2.69648 24.5121 0.746484 19.5 0.746484Z" fill="white"/>
</g>
<defs>
<clipPath id="clip0_1081_29">
<rect width="39" height="39" fill="white"/>
</clipPath>
</defs>
</svg>
