<svg width="122" height="120" viewBox="0 0 122 120" fill="none" xmlns="http://www.w3.org/2000/svg">
<path d="M59.6404 114.75H8.18199C14.1687 107.151 17.411 97.7509 17.3827 88.0767V5.25H96.7686V48.9279C96.7686 49.533 97.009 50.1132 97.4368 50.541C97.8646 50.9688 98.4449 51.2092 99.0499 51.2092C99.6549 51.2092 100.235 50.9688 100.663 50.541C101.091 50.1132 101.331 49.533 101.331 48.9279V2.96875C101.331 2.66915 101.272 2.37247 101.158 2.09566C101.043 1.81885 100.875 1.56734 100.663 1.35549C100.451 1.14364 100.2 0.975605 99.923 0.86099C99.6462 0.746374 99.3495 0.687421 99.0499 0.6875H15.1015C14.8019 0.687421 14.5052 0.746374 14.2284 0.86099C13.9516 0.975605 13.7001 1.14364 13.4882 1.35549C13.2764 1.56734 13.1083 1.81885 12.9937 2.09566C12.8791 2.37247 12.8201 2.66915 12.8202 2.96875V88.0767C12.8343 93.1565 11.8407 98.1886 9.89692 102.882C7.95319 107.575 5.09792 111.836 1.49638 115.418C1.17732 115.737 0.960027 116.144 0.871981 116.586C0.783935 117.029 0.829094 117.487 1.00175 117.904C1.1744 118.321 1.46679 118.677 1.84193 118.928C2.21708 119.179 2.65813 119.313 3.10931 119.312H59.6404C60.2454 119.312 60.8257 119.072 61.2535 118.644C61.6813 118.217 61.9217 117.636 61.9217 117.031C61.9217 116.426 61.6813 115.846 61.2535 115.418C60.8257 114.99 60.2454 114.75 59.6404 114.75Z" fill="white"/>
<path d="M83.241 29.4214H30.9092C30.3042 29.4214 29.7239 29.6617 29.2961 30.0896C28.8683 30.5174 28.6279 31.0976 28.6279 31.7026C28.6279 32.3077 28.8683 32.8879 29.2961 33.3157C29.7239 33.7435 30.3042 33.9839 30.9092 33.9839H83.241C83.8461 33.9839 84.4263 33.7435 84.8541 33.3157C85.282 32.8879 85.5223 32.3077 85.5223 31.7026C85.5223 31.0976 85.282 30.5174 84.8541 30.0896C84.4263 29.6617 83.8461 29.4214 83.241 29.4214Z" fill="white"/>
<path d="M85.5223 47.1592C85.5224 46.8596 85.4634 46.5629 85.3488 46.2861C85.2342 46.0093 85.0662 45.7578 84.8543 45.5459C84.6425 45.3341 84.3909 45.166 84.1141 45.0514C83.8373 44.9368 83.5406 44.8779 83.241 44.8779H30.9092C30.3042 44.8779 29.7239 45.1183 29.2961 45.5461C28.8683 45.9739 28.6279 46.5542 28.6279 47.1592C28.6279 47.7642 28.8683 48.3445 29.2961 48.7723C29.7239 49.2001 30.3042 49.4404 30.9092 49.4404H83.241C83.5406 49.4405 83.8373 49.3816 84.1141 49.2669C84.3909 49.1523 84.6425 48.9843 84.8543 48.7724C85.0662 48.5606 85.2342 48.3091 85.3488 48.0323C85.4634 47.7555 85.5224 47.4588 85.5223 47.1592Z" fill="white"/>
<path d="M62.7775 62.6152C62.7776 62.3156 62.7186 62.019 62.604 61.7421C62.4894 61.4653 62.3213 61.2138 62.1095 61.002C61.8976 60.7901 61.6461 60.6221 61.3693 60.5075C61.0925 60.3929 60.7958 60.3339 60.4962 60.334H30.9102C30.3051 60.334 29.7249 60.5743 29.2971 61.0021C28.8693 61.43 28.6289 62.0102 28.6289 62.6152C28.6289 63.2203 28.8693 63.8005 29.2971 64.2283C29.7249 64.6561 30.3051 64.8965 30.9102 64.8965H60.4962C60.7958 64.8966 61.0925 64.8376 61.3693 64.723C61.6461 64.6084 61.8976 64.4403 62.1095 64.2285C62.3213 64.0166 62.4894 63.7651 62.604 63.4883C62.7186 63.2115 62.7776 62.9148 62.7775 62.6152Z" fill="white"/>
<path d="M30.9102 75.7905C30.3051 75.7905 29.7249 76.0309 29.2971 76.4587C28.8693 76.8865 28.6289 77.4668 28.6289 78.0718C28.6289 78.6768 28.8693 79.257 29.2971 79.6849C29.7249 80.1127 30.3051 80.353 30.9102 80.353H49.5177C50.1227 80.353 50.703 80.1127 51.1308 79.6849C51.5586 79.257 51.799 78.6768 51.799 78.0718C51.799 77.4668 51.5586 76.8865 51.1308 76.4587C50.703 76.0309 50.1227 75.7905 49.5177 75.7905H30.9102Z" fill="white"/>
<path d="M112.536 68.971C108.72 65.1486 103.928 62.4486 98.6811 61.166C93.4347 59.8835 87.9367 60.0677 82.7879 61.6986C77.6391 63.3295 73.0377 66.3444 69.4865 70.4136C65.9353 74.4829 63.571 79.45 62.6519 84.7721L60.8392 82.9593C60.4115 82.5315 59.8313 82.2912 59.2263 82.2912C58.6214 82.2912 58.0412 82.5315 57.6134 82.9593C57.1856 83.3871 56.9453 83.9672 56.9453 84.5722C56.9453 85.1772 57.1856 85.7573 57.6134 86.1851L62.8628 91.4343C63.2917 91.8612 63.8722 92.1008 64.4773 92.1008C65.0823 92.1008 65.6628 91.8612 66.0917 91.4343L71.3422 86.1851C71.7699 85.7573 72.0103 85.1772 72.0103 84.5722C72.0103 83.9672 71.7699 83.3871 71.3422 82.9593C70.9144 82.5315 70.3342 82.2912 69.7293 82.2912C69.1243 82.2912 68.5441 82.5315 68.1163 82.9593L67.5982 83.4772C69.0009 78.1733 72.1157 73.481 76.4589 70.129C80.802 66.777 86.1305 64.9529 91.6167 64.94C97.103 64.9271 102.44 66.7261 106.799 70.0576C111.158 73.3891 114.295 78.0667 115.722 83.3639C117.15 88.6612 116.789 94.2816 114.694 99.3524C112.6 104.423 108.89 108.66 104.14 111.406C99.3902 114.152 93.8667 115.253 88.4273 114.537C82.9879 113.822 77.937 111.33 74.059 107.449C73.6312 107.022 73.051 106.781 72.4461 106.781C71.8411 106.781 71.2609 107.022 70.8331 107.449C70.4054 107.877 70.165 108.457 70.165 109.062C70.165 109.667 70.4054 110.247 70.8331 110.675C76.3644 116.201 83.8636 119.304 91.6821 119.302C99.5005 119.3 106.998 116.193 112.527 110.664C118.055 105.136 121.162 97.6382 121.163 89.8197C121.165 82.0013 118.062 74.5021 112.536 68.971H112.536Z" fill="white"/>
<path d="M91.6846 70.0718C91.385 70.0717 91.0883 70.1307 90.8115 70.2453C90.5347 70.3599 90.2832 70.5279 90.0713 70.7398C89.8595 70.9516 89.6914 71.2031 89.5768 71.4799C89.4622 71.7567 89.4032 72.0534 89.4033 72.353V89.8233C89.4069 90.4286 89.6475 91.0085 90.0736 91.4384L98.3412 99.7058C98.7699 100.129 99.3486 100.365 99.951 100.364C100.553 100.362 101.131 100.121 101.557 99.6955C101.983 99.2695 102.223 98.6923 102.225 98.0899C102.227 97.4875 101.99 96.9088 101.567 96.4801L93.9658 88.8789V72.353C93.9659 72.0534 93.9069 71.7567 93.7923 71.4799C93.6777 71.2031 93.5097 70.9516 93.2978 70.7398C93.086 70.5279 92.8345 70.3599 92.5577 70.2453C92.2809 70.1307 91.9842 70.0717 91.6846 70.0718Z" fill="white"/>
</svg>
