<svg width="171" height="155" viewBox="0 0 171 155" fill="none" xmlns="http://www.w3.org/2000/svg">
<path d="M147 56.9999C146.082 55.7807 145.08 54.6279 144 53.5499L99.45 8.99986C98.2825 7.83063 96.896 6.90305 95.3697 6.27016C93.8434 5.63728 92.2073 5.31152 90.555 5.31152C88.9027 5.31152 87.2666 5.63728 85.7403 6.27016C84.214 6.90305 82.8275 7.83063 81.66 8.99986L12.66 77.9999C11.4908 79.1673 10.5632 80.5539 9.93032 82.0802C9.29744 83.6065 8.97168 85.2426 8.97168 86.8949C8.97168 88.5472 9.29744 90.1833 9.93032 91.7095C10.5632 93.2358 11.4908 94.6224 12.66 95.7899L42 125.1" stroke="white" stroke-width="4" stroke-linecap="round" stroke-linejoin="round"/>
<path d="M152.43 57H54.4504C47.5413 57 41.9404 62.6009 41.9404 69.51V131.49C41.9404 138.399 47.5413 144 54.4504 144H152.43C159.34 144 164.94 138.399 164.94 131.49V69.51C164.94 62.6009 159.34 57 152.43 57Z" stroke="white" stroke-width="4" stroke-linecap="round" stroke-linejoin="round"/>
<path d="M41.9404 81H164.94" stroke="white" stroke-width="4" stroke-linecap="round" stroke-linejoin="round"/>
<path d="M41.9404 93H164.94" stroke="white" stroke-width="4" stroke-linecap="round" stroke-linejoin="round"/>
<path d="M59.9404 111H83.9404" stroke="white" stroke-width="4" stroke-linecap="round" stroke-linejoin="round"/>
<path d="M59.9404 123H74.9404" stroke="white" stroke-width="4" stroke-linecap="round" stroke-linejoin="round"/>
<path d="M95.9404 111H110.94" stroke="white" stroke-width="4" stroke-linecap="round" stroke-linejoin="round"/>
</svg>
