<svg width="23" height="23" viewBox="0 0 23 23" fill="none" xmlns="http://www.w3.org/2000/svg">
<path d="M11.5 1.15C17.2069 1.15 21.85 5.79312 21.85 11.5C21.85 17.2069 17.2069 21.85 11.5 21.85C5.79312 21.85 1.15 17.2069 1.15 11.5C1.15 5.79312 5.79312 1.15 11.5 1.15ZM11.5 0C5.14912 0 0 5.14855 0 11.5C0 17.852 5.14912 23 11.5 23C17.852 23 23 17.852 23 11.5C23 5.14855 17.852 0 11.5 0Z" fill="#6C6C6C"/>
<path fill-rule="evenodd" clip-rule="evenodd" d="M8.26343 5.63078C8.95746 5.49968 9.41228 6.28225 9.75843 6.82218C10.0954 7.34658 10.51 7.96183 10.3426 8.64435C10.2495 9.0273 9.90333 9.23603 9.64171 9.462C9.38353 9.6851 8.99023 9.8898 8.89478 10.2325C8.73896 10.7885 9.07993 11.3722 9.29096 11.7045C9.77051 12.4555 10.3501 13.1322 11.0901 13.7366C11.4484 14.0298 11.9457 14.4214 12.4443 14.3208C13.1889 14.1701 13.3855 13.2518 14.1963 13.1294C14.9679 13.0126 15.49 13.5721 15.9259 13.947C16.3456 14.3098 17.023 14.7744 16.977 15.396C16.95 15.7531 16.6636 15.9745 16.4152 16.1901C16.1628 16.4103 15.9414 16.6576 15.6919 16.8203C15.0875 17.2147 14.3464 17.4079 13.4954 17.3815C12.661 17.3556 11.9963 17.0721 11.3932 16.7507C10.2138 16.1217 9.28176 15.2367 8.40373 14.2506C7.54008 13.2812 6.74256 12.1335 6.30153 10.8644C5.75126 9.27973 6.04221 7.6519 6.93288 6.63645C7.08353 6.46395 7.32158 6.28398 7.53951 6.09883C7.75686 5.9131 7.95811 5.68828 8.26343 5.63078Z" fill="#6C6C6C"/>
</svg>
