<svg width="182" height="182" viewBox="0 0 182 182" fill="none" xmlns="http://www.w3.org/2000/svg">
<path d="M66.3439 136.531C66.1096 136.531 65.8752 136.453 65.6408 136.375C64.8596 135.985 64.5471 135.047 64.9377 134.266L109.469 48.3283C109.86 47.5471 110.797 47.2346 111.578 47.6252C112.36 48.0158 112.672 48.9533 112.281 49.7346L67.7502 135.672C67.4377 136.219 66.8908 136.531 66.3439 136.531Z" fill="#856E71"/>
<path d="M70.25 84.9697C59.9375 84.9697 51.5 76.5322 51.5 66.2197C51.5 55.9072 59.9375 47.4697 70.25 47.4697C80.5625 47.4697 89 55.9072 89 66.2197C89 76.5322 80.5625 84.9697 70.25 84.9697ZM70.25 50.5947C61.6562 50.5947 54.625 57.626 54.625 66.2197C54.625 74.8135 61.6562 81.8447 70.25 81.8447C78.8438 81.8447 85.875 74.8135 85.875 66.2197C85.875 57.626 78.8438 50.5947 70.25 50.5947Z" fill="#856E71"/>
<path d="M107.75 136.531C97.4375 136.531 89 128.094 89 117.781C89 107.469 97.4375 99.0312 107.75 99.0312C118.062 99.0312 126.5 107.469 126.5 117.781C126.5 128.094 118.062 136.531 107.75 136.531ZM107.75 102.156C99.1562 102.156 92.125 109.187 92.125 117.781C92.125 126.375 99.1562 133.406 107.75 133.406C116.344 133.406 123.375 126.375 123.375 117.781C123.375 109.187 116.344 102.156 107.75 102.156Z" fill="#856E71"/>
<circle cx="91" cy="91" r="89.5" stroke="#856E71" stroke-width="3"/>
</svg>
