<svg width="182" height="182" viewBox="0 0 182 182" fill="none" xmlns="http://www.w3.org/2000/svg">
<path d="M131.833 133.7H50.1662C44.7995 133.7 40.3662 129.266 40.3662 123.9V59.7331C40.3662 54.3664 44.7995 49.9331 50.1662 49.9331H131.833C137.2 49.9331 141.633 54.3664 141.633 59.7331V123.9C141.633 129.266 137.2 133.7 131.833 133.7ZM50.1662 51.7998C45.7329 51.7998 42.2329 55.2998 42.2329 59.7331V123.9C42.2329 128.333 45.7329 131.833 50.1662 131.833H131.833C136.266 131.833 139.766 128.333 139.766 123.9V59.7331C139.766 55.2998 136.266 51.7998 131.833 51.7998H50.1662Z" fill="#856E71" stroke="#856E71" stroke-miterlimit="10"/>
<path d="M124.833 146.067H57.1664C53.6664 146.067 50.3997 143.733 49.4664 140.467C49.233 140 49.6997 139.533 50.1664 139.3C50.633 139.067 51.0997 139.3 51.333 140C52.033 142.567 54.5997 144.433 57.3997 144.433H124.833C127.633 144.433 129.966 142.567 130.9 140C131.133 139.533 131.6 139.3 132.066 139.3C132.533 139.533 132.766 140 132.766 140.467C131.6 143.733 128.333 146.067 124.833 146.067Z" fill="#856E71" stroke="#856E71" stroke-miterlimit="10"/>
<path d="M107.333 115.733C107.099 115.733 106.866 115.733 106.866 115.5L90.9992 104.066L75.1325 115.5C74.8992 115.733 74.4325 115.733 73.9659 115.5C73.7325 115.266 73.4992 114.8 73.7325 114.566L79.7992 95.8996L63.9325 84.4663C63.6992 84.233 63.4659 83.7663 63.6992 83.533C63.9325 83.2996 64.1659 82.833 64.6325 82.833H83.9992L90.0659 64.1663C90.2992 63.6996 90.5325 63.4663 90.9992 63.4663C91.4659 63.4663 91.6992 63.6996 91.9325 64.1663L97.9992 82.833H117.599C118.066 82.833 118.299 83.0663 118.533 83.533C118.766 83.9996 118.533 84.233 118.299 84.4663L102.433 95.8996L108.499 114.566C108.733 115.033 108.499 115.266 108.266 115.5C107.799 115.733 107.566 115.733 107.333 115.733ZM90.9992 101.966C91.2325 101.966 91.4659 101.966 91.4659 102.2L105.466 112.466L100.333 95.8996C100.099 95.433 100.333 95.1996 100.566 94.9663L114.566 84.6996H97.2992C96.8325 84.6996 96.5992 84.4663 96.3659 83.9996L90.9992 67.433L85.6325 83.9996C85.3992 84.4663 85.1659 84.6996 84.6992 84.6996H67.4325L81.4325 94.9663C81.6659 95.1996 81.8992 95.6663 81.6659 95.8996L76.2992 112.466L90.2992 102.2C90.5325 102.2 90.7659 101.966 90.9992 101.966Z" fill="#856E71" stroke="#856E71" stroke-miterlimit="10"/>
<path d="M131.6 141.166H50.3996C49.933 141.166 49.4663 140.7 49.4663 140.233C49.4663 139.766 49.933 139.3 50.3996 139.3H131.6C132.066 139.3 132.533 139.766 132.533 140.233C132.533 140.7 132.066 141.166 131.6 141.166Z" fill="#856E71" stroke="#856E71" stroke-miterlimit="10"/>
<circle cx="91" cy="91" r="89.5" stroke="#856E71" stroke-width="3"/>
</svg>
