<svg width="182" height="182" viewBox="0 0 182 182" fill="none" xmlns="http://www.w3.org/2000/svg">
<path d="M128.887 132.96H56.1147V118.948H128.887V132.96ZM58.8267 130.248H125.949V121.66H58.8267V130.248Z" fill="#856E71"/>
<path d="M56.1141 120.53L49.5601 79.1721L73.9681 94.3141L92.5001 50.0181L111.032 94.3141L135.44 79.1721L128.886 120.53L126.174 120.078L131.824 84.8221L109.676 98.6081L92.5001 57.2501L75.3241 98.6081L53.1761 84.8221L58.8261 120.078L56.1141 120.53Z" fill="#856E71"/>
<path d="M92.5007 52.73C87.9807 52.73 84.3647 49.114 84.3647 44.594C84.3647 40.074 87.9807 36.458 92.5007 36.458C97.0207 36.458 100.637 40.074 100.637 44.594C100.637 49.114 97.0207 52.73 92.5007 52.73ZM92.5007 39.17C89.5627 39.17 87.0767 41.656 87.0767 44.594C87.0767 47.532 89.5627 50.018 92.5007 50.018C95.4387 50.018 97.9247 47.532 97.9247 44.594C97.9247 41.656 95.4387 39.17 92.5007 39.17Z" fill="#856E71"/>
<path d="M138.152 83.0142C133.632 83.0142 130.016 79.3982 130.016 74.8782C130.016 70.3582 133.632 66.7422 138.152 66.7422C142.672 66.7422 146.288 70.3582 146.288 74.8782C146.288 79.3982 142.672 83.0142 138.152 83.0142ZM138.152 69.2282C135.214 69.2282 132.728 71.7142 132.728 74.6522C132.728 77.5902 135.214 80.0762 138.152 80.0762C141.09 80.0762 143.576 77.5902 143.576 74.6522C143.576 71.7142 141.09 69.2282 138.152 69.2282Z" fill="#856E71"/>
<path d="M46.8484 83.0142C42.3284 83.0142 38.7124 79.3982 38.7124 74.8782C38.7124 70.3582 42.3284 66.7422 46.8484 66.7422C51.3684 66.7422 54.9844 70.3582 54.9844 74.8782C54.9844 79.3982 51.3684 83.0142 46.8484 83.0142ZM46.8484 69.2282C43.9104 69.2282 41.4244 71.7142 41.4244 74.6522C41.4244 77.5902 43.9104 80.0762 46.8484 80.0762C49.7864 80.0762 52.2724 77.5902 52.2724 74.6522C52.2724 71.7142 49.7864 69.2282 46.8484 69.2282Z" fill="#856E71"/>
<circle cx="91" cy="91" r="89.5" stroke="#856E71" stroke-width="3"/>
</svg>
