<svg width="118" height="132" viewBox="0 0 118 132" fill="none" xmlns="http://www.w3.org/2000/svg">
<path d="M58.9785 73.9336C78.686 73.9336 94.6621 57.9575 94.6621 38.25C94.6621 18.5425 78.686 2.56641 58.9785 2.56641C39.271 2.56641 23.2949 18.5425 23.2949 38.25C23.2949 57.9575 39.271 73.9336 58.9785 73.9336Z" stroke="white" stroke-width="4" stroke-miterlimit="10"/>
<path d="M69.2734 91.1601C62.0957 103.424 67.0996 112.529 67.0996 112.529C64.5566 113.35 61.8086 113.801 58.9785 113.801C56.1484 113.801 53.4414 113.35 50.8984 112.529C50.8984 112.529 54.7949 104.572 49.75 93.0879C45.2793 82.998 35.1895 78.8144 35.1895 78.8144C36.707 75.2461 39.0449 72.0879 41.957 69.5449C41.957 69.5449 49.2578 73.8516 58.9375 73.8516C68.5352 73.8516 75.959 69.5449 75.959 69.5449C78.9121 72.0879 81.25 75.2461 82.7676 78.8144C82.7676 78.8965 75.3848 80.7422 69.2734 91.1601Z" stroke="white" stroke-width="4" stroke-miterlimit="10"/>
<path d="M44.0078 35.9941C46.3183 35.9941 48.1914 34.1211 48.1914 31.8105C48.1914 29.5 46.3183 27.627 44.0078 27.627C41.6973 27.627 39.8242 29.5 39.8242 31.8105C39.8242 34.1211 41.6973 35.9941 44.0078 35.9941Z" stroke="white" stroke-width="4" stroke-miterlimit="10"/>
<path d="M35.8867 110.355C39.4205 110.355 42.2851 107.491 42.2851 103.957C42.2851 100.423 39.4205 97.5586 35.8867 97.5586C32.353 97.5586 29.4883 100.423 29.4883 103.957C29.4883 107.491 32.353 110.355 35.8867 110.355Z" stroke="white" stroke-width="4" stroke-miterlimit="10"/>
<path d="M82.7266 110.355C86.2603 110.355 89.125 107.491 89.125 103.957C89.125 100.423 86.2603 97.5586 82.7266 97.5586C79.1928 97.5586 76.3281 100.423 76.3281 103.957C76.3281 107.491 79.1928 110.355 82.7266 110.355Z" stroke="white" stroke-width="4" stroke-miterlimit="10"/>
<path d="M44.2012 120.898C53.4859 114.856 55.0536 100.801 47.7026 89.5032C40.3516 78.2058 26.8657 73.945 17.581 79.9864C8.29628 86.0278 6.72867 100.084 14.0796 111.381C21.4306 122.678 34.9165 126.939 44.2012 120.898Z" stroke="white" stroke-width="4" stroke-miterlimit="10"/>
<path d="M103.936 111.362C111.287 100.064 109.719 86.0084 100.435 79.967C91.1499 73.9256 77.664 78.1864 70.313 89.4838C62.9621 100.781 64.5297 114.837 73.8144 120.878C83.0991 126.92 96.585 122.659 103.936 111.362Z" stroke="white" stroke-width="4" stroke-miterlimit="10"/>
<path d="M26.8633 22.6641C23.3359 31.4414 23.2949 35.9941 23.2949 35.9941C14.7227 35.9941 7.75 29.0215 7.75 20.4492C7.75 11.877 14.7227 4.9043 23.2949 4.9043C28.3809 4.9043 32.9336 7.36524 35.7637 11.1387C35.7637 11.1387 29.2422 16.7578 26.8633 22.6641Z" stroke="white" stroke-width="4" stroke-miterlimit="10"/>
<path d="M90.9297 22.6641C94.457 31.4414 94.498 35.9941 94.498 35.9941C103.07 35.9941 110.043 29.0215 110.043 20.4492C110.043 11.877 103.07 4.9043 94.498 4.9043C89.4121 4.9043 84.8594 7.36524 82.0293 11.1387C82.0293 11.1387 88.5508 16.7578 90.9297 22.6641Z" stroke="white" stroke-width="4" stroke-miterlimit="10"/>
<path d="M58.9785 51.8262C62.399 51.8262 65.1719 49.0533 65.1719 45.6328C65.1719 42.2123 62.399 39.4395 58.9785 39.4395C55.558 39.4395 52.7852 42.2123 52.7852 45.6328C52.7852 49.0533 55.558 51.8262 58.9785 51.8262Z" stroke="white" stroke-width="4" stroke-miterlimit="10"/>
<path d="M73.9492 35.9941C76.2598 35.9941 78.1328 34.1211 78.1328 31.8105C78.1328 29.5 76.2598 27.627 73.9492 27.627C71.6387 27.627 69.7656 29.5 69.7656 31.8105C69.7656 34.1211 71.6387 35.9941 73.9492 35.9941Z" stroke="white" stroke-width="4" stroke-miterlimit="10"/>
<path d="M59.1426 73.9746C70.8765 73.9746 80.3887 66.2436 80.3887 56.707C80.3887 47.1704 70.8765 39.4395 59.1426 39.4395C47.4087 39.4395 37.8965 47.1704 37.8965 56.707C37.8965 66.2436 47.4087 73.9746 59.1426 73.9746Z" stroke="white" stroke-width="4" stroke-miterlimit="10"/>
<path d="M14.2305 82.834C14.2305 82.834 8.5293 65.9766 28.4219 56.707" stroke="white" stroke-width="4" stroke-miterlimit="10"/>
<path d="M103.973 82.834C103.973 82.834 109.674 65.9766 89.7812 56.707" stroke="white" stroke-width="4" stroke-miterlimit="10"/>
</svg>
