<svg width="39" height="39" viewBox="0 0 39 39" fill="none" xmlns="http://www.w3.org/2000/svg">
<g clip-path="url(#clip0_181_968)">
<path d="M38.6187 19.5C38.6187 30.0603 30.0598 38.6191 19.4995 38.6191C8.93917 38.6191 0.380371 30.0603 0.380371 19.5C0.380371 8.93966 8.93917 0.380859 19.4995 0.380859C30.0598 0.380859 38.6187 8.93966 38.6187 19.5Z" stroke="white"/>
<path d="M30.7732 12.9951H26.5381C26.1877 12.9951 25.8602 13.1856 25.6926 13.4979C25.6926 13.4979 24.0016 16.6057 23.4607 17.6569C21.9982 20.4752 21.0537 19.5916 21.0537 18.2815V13.7721C21.0537 12.9875 20.4215 12.3553 19.6369 12.3553H16.4529C15.5693 12.2867 14.7162 12.6828 14.1982 13.3989C14.1982 13.3989 15.8131 13.1399 15.8131 15.3184C15.8131 15.8592 15.8436 17.4131 15.8664 18.7157C15.8816 19.2336 15.4703 19.6678 14.9523 19.6754C14.6781 19.683 14.4115 19.5688 14.2287 19.3631C12.9262 17.5502 11.8445 15.5926 11.0143 13.5207C10.8695 13.2008 10.5496 13.0028 10.2068 13.0028C9.28516 13.0028 7.44941 13.0028 6.36016 13.0028C6.00215 13.0028 5.70508 13.2922 5.70508 13.6502C5.70508 13.7264 5.72031 13.8102 5.74316 13.8787C6.90859 17.078 11.9436 27.1479 17.6793 27.1479H20.1092C20.6348 27.1479 21.0613 26.7213 21.0613 26.1957V24.7332C21.0613 24.2153 21.4803 23.7963 21.9982 23.7963C22.2344 23.7963 22.4629 23.8877 22.6381 24.0477L25.5326 26.767C25.7916 27.0108 26.1344 27.1479 26.4924 27.1479H30.2934C32.1215 27.1479 32.1215 25.8758 31.1236 24.8932C30.4228 24.2 27.8863 21.5264 27.8863 21.5264C27.4369 21.0618 27.3912 20.3381 27.7873 19.8278C28.61 18.7461 29.9506 16.9866 30.5143 16.2248C31.2912 15.1889 32.7004 12.9951 30.7732 12.9951Z" fill="white"/>
</g>
<defs>
<clipPath id="clip0_181_968">
<rect width="39" height="39" fill="white"/>
</clipPath>
</defs>
</svg>
