<svg width="147" height="59" viewBox="0 0 147 59" fill="none" xmlns="http://www.w3.org/2000/svg">
<g clip-path="url(#clip0_402_197)">
<path d="M66.7215 35.3454C66.0127 35.1669 66.0127 34.9883 66.2785 34.4528C66.4557 34.185 66.6329 33.9172 66.8987 33.7387C67.6962 33.2924 67.962 32.3106 68.3165 31.5073V31.418C68.3165 31.3287 68.2278 31.1502 68.1392 31.1502C67.519 31.061 68.0506 30.3469 67.519 30.1684C67.1646 30.0791 66.8101 29.7221 66.3671 29.9006C65.481 30.2576 64.6835 30.7039 63.8861 31.1502C63.7089 31.2395 63.5316 31.418 63.3544 31.2395C63.1772 30.9717 63.3544 30.7932 63.5316 30.7039C63.7089 30.5254 63.9747 30.3469 64.2405 30.1684C64.5063 29.9899 64.5949 29.7221 64.5949 29.2758C64.5063 29.2758 64.4177 29.3651 64.3291 29.3651C64.2405 29.4543 64.0633 29.5436 63.9747 29.3651C63.7089 29.0973 64.1519 29.008 64.2405 28.8295C64.6835 28.1154 65.481 27.7584 66.1013 27.3121C67.1646 26.598 68.4051 25.9732 69.557 25.3484C69.9114 25.1699 70.2658 24.8129 70.5316 24.5451L70.6202 24.4558C70.5316 23.3847 71.5949 23.3847 72.1266 22.8492C72.5696 22.4029 73.1013 22.2244 73.5443 21.8673C73.8987 21.5995 74.076 21.064 74.3418 20.707C74.519 20.4392 74.6962 20.1714 75.0506 19.9036C75.6709 19.4573 76.2911 18.8325 76.7342 18.1185C77.3544 16.9581 78.2405 16.0655 78.6835 14.7266C79.038 13.6555 79.3924 12.4952 79.6582 11.3348C79.7468 10.7992 79.5696 9.99591 79.7468 9.46036C79.7468 9.3711 79.7468 9.28184 79.5696 9.19258C79.3924 9.10332 79.2152 9.10332 79.1266 9.19258C79.038 9.54962 78.7721 9.46036 78.5063 9.28184C78.3291 9.19258 78.2405 9.19258 78.0633 9.19258C77.8861 9.19258 77.7975 8.83555 77.7975 8.65703C77.7975 8.47851 77.8861 8.38925 77.8861 8.21074C77.8861 8.03222 77.8861 7.8537 77.7089 7.76444C77.5316 7.67518 77.443 7.67518 77.3544 7.76444C77 8.03222 76.8228 8.47851 76.3797 8.65703C76.2025 8.74629 76.1139 8.92481 75.8481 8.65703C75.5823 8.47851 75.7595 8.3 75.7595 8.03222C75.7595 7.67518 76.0253 7.31815 75.3165 7.13963C75.1392 7.13963 75.2278 6.87186 75.2278 6.7826C75.1392 6.42556 74.962 6.3363 74.7848 6.51482C74.4304 6.69334 74.4304 7.13963 74.2532 7.49667C74.1646 7.94296 73.8987 8.21074 73.4557 8.38925C73.4557 7.94296 73.5443 7.58593 73.6329 7.22889C73.7215 6.87186 73.8101 6.51482 73.8101 6.06853C73.8101 5.80075 73.9873 5.44372 73.4557 5.2652C73.2785 5.17594 73.2785 4.99742 73.2785 4.81891C73.2785 4.28335 72.924 4.01558 72.481 3.92632C72.038 3.7478 71.6835 3.83706 71.5063 4.19409C71.4177 4.46187 71.4177 4.64039 71.3291 4.90816C71.2405 5.17594 70.9747 5.08668 70.7975 4.81891C70.6203 4.55113 70.5316 4.37261 70.1772 4.37261C69.8228 4.46187 69.3797 4.46187 69.2911 4.81891C69.0253 5.44372 68.7595 5.97927 68.5823 6.60408C68.4937 6.87186 68.4051 7.13963 68.0506 7.05037L67.962 7.49667C67.7848 8.03222 67.2532 8.21074 67.0759 8.65703C66.8101 9.28184 66.1899 9.63888 65.7468 10.0852C65.7468 9.72813 65.7468 9.54962 65.2152 9.3711C64.8608 9.28184 64.6835 8.56777 64.5063 8.21074C64.3291 7.76444 63.7975 7.31815 63.443 7.31815C63.0886 7.31815 62.9114 7.05037 62.9114 6.7826C63.0886 5.89001 62.557 4.81891 62.4684 3.83706C62.3797 3.30151 62.1139 2.49818 61.7595 2.14115C61.1392 1.69485 61.1392 1.07004 60.6076 0.534488L60.519 0.355971C60.3418 0.534488 60.0759 0.355971 59.8101 0.177454C59.6329 0.0881949 59.4557 -0.0903225 59.2785 -0.00106383C58.924 0.0881949 58.7468 0.355971 58.6582 0.623747C58.481 1.24856 58.481 1.24856 58.038 0.623747C57.7721 0.266712 57.5949 0.355971 57.5063 0.623747C57.3291 0.980782 57.3291 1.42708 56.7089 1.24856C56.6203 1.1593 56.5316 1.42708 56.5316 1.51633C56.3544 1.87337 56.2658 2.31966 56.0886 2.6767C56 2.85521 55.9114 3.12299 55.6456 3.03373C55.3797 2.94447 55.2911 2.6767 55.2025 2.40892V2.31966C55.1139 1.96263 55.0253 1.51633 54.7595 1.33782C54.4937 1.24856 54.1392 1.42708 54.0506 1.78411C53.7848 3.21225 52.7215 4.01558 51.924 4.99742C51.7468 5.17594 51.5696 5.35446 51.481 5.53298C51.038 6.15779 50.5949 6.69334 49.9747 7.13963C49.1772 7.76444 48.557 8.47851 47.7595 9.10332C46.8734 9.72813 45.9873 10.4422 44.8354 10.71C44.2152 10.7992 43.7721 11.3348 43.2405 11.6918C41.7342 12.7629 40.0506 13.2985 38.3671 14.1018C37.038 14.8159 35.7089 15.53 34.3797 16.1548C32.519 17.1366 30.6582 18.0292 28.6203 18.7433C26.7595 19.4573 24.8987 19.9929 22.9494 20.5284C21.0886 21.064 19.3165 21.8673 17.8101 23.0277C17.0127 23.6525 16.6582 24.5451 16.481 25.6162C16.3924 25.9732 17.1013 26.598 17.3671 26.5088C17.5443 26.5088 17.6329 26.5088 17.8101 26.6873C17.9873 26.8658 17.8987 27.0443 17.7215 27.1336C17.2785 27.4906 16.7468 27.9369 16.2152 28.2047C15.2405 28.7402 14.7089 29.6328 13.9114 30.2576C13.8228 30.3469 13.8228 30.5254 13.7342 30.6147C13.6456 30.8824 13.7342 30.9717 14 31.061C14.443 31.1502 14.9747 31.1502 15.3291 30.8824C15.5063 30.7039 15.8608 30.4362 16.1266 30.7039C16.3038 30.9717 16.1266 31.418 15.9494 31.5965C14.8861 32.4891 14.1772 33.828 12.5823 34.0958C11.4304 34.2743 10.5443 34.8991 9.74683 35.7024C9.3924 36.0595 9.12658 36.4165 8.59494 36.5057C8.41772 36.5057 8.32911 36.595 8.41772 36.8628C8.50633 37.0413 8.59494 37.1306 8.77215 37.2198C9.3924 37.3983 10.1013 37.6661 10.5443 37.2198C10.6329 37.1306 10.7215 37.1306 10.8987 37.2198C11.0759 37.3983 10.8987 37.4876 10.8101 37.5769C10.1013 37.9339 9.3924 38.3802 8.77215 38.7372C8.1519 39.0942 7.79747 39.7191 7.53165 40.4331C7.44304 40.7009 7.53165 40.7902 7.79747 40.7902C7.88608 40.7902 7.97468 40.7902 8.1519 40.7902C8.32911 40.7902 8.50633 40.8794 8.68354 40.7902C8.86076 40.7009 9.12658 40.7902 9.12658 41.1472C9.12658 41.5042 9.3038 41.5935 9.56962 41.5042L9.74683 41.415C9.92405 41.415 10.0127 41.2365 10.1899 41.5042C10.2785 41.6828 10.1013 41.772 10.0127 41.772C9.3038 42.0398 8.68354 42.3076 7.97468 42.5753C7 42.9324 5.93671 43.1109 4.96203 43.5572C3.89873 44.0927 2.83544 44.539 2.03797 45.4316C1.24051 46.2349 0.531646 47.306 0.265823 48.5557C0.177215 48.8234 0 49.002 0 49.4483C0.443038 49.1805 0.797468 48.9127 1.24051 48.6449C1.41772 48.5557 1.50633 48.4664 1.86076 48.8234C2.21519 49.1805 2.56962 48.9127 2.74684 48.7342C3.18987 48.2879 3.89873 48.3772 4.43038 48.1094C4.60759 48.0201 4.78481 48.1094 4.87342 48.2879C5.05063 48.4664 5.05063 48.6449 4.96203 48.7342C4.87342 49.002 4.96203 49.2697 5.13924 49.4483C5.31646 49.6268 5.49367 49.4483 5.67089 49.4483C6.37975 49.359 7.17722 49.4483 7.79747 49.1805C7.88608 49.0912 8.06329 49.0912 8.24051 49.2697C8.86076 49.716 9.21519 49.5375 9.65823 49.359C9.92405 49.2697 10.1899 49.1805 10.5443 49.0912C10.9873 49.002 11.4304 49.0912 11.6962 49.716C11.7848 49.8946 11.962 50.0731 12.1392 50.0731C12.6709 50.0731 13.2025 50.1623 13.8228 50.2516C14.3544 50.3408 14.9747 50.4301 15.5063 50.4301C15.6835 50.4301 15.8608 50.4301 16.038 50.5194C16.3038 50.6086 16.6582 50.6086 16.924 50.5194C17.1013 50.4301 17.1899 50.6086 17.2785 50.8764C17.5443 51.4119 17.9873 51.6797 18.4304 51.5905C18.962 51.5012 19.4051 51.3227 20.0253 51.5012C20.4684 51.5905 20.8228 51.5012 21.0886 51.3227C21.3544 51.1442 21.6203 50.8764 22.0633 51.2334C22.2405 51.3227 22.3291 51.1442 22.5063 51.1442C23.3038 50.7871 23.8354 50.0731 24.5443 49.6268C24.8987 49.359 25.3418 49.4483 25.6962 49.2697C26.9367 48.5557 28.1772 47.9309 29.5063 47.306C32.1646 46.1457 34.9114 45.3424 37.8354 44.7175C41.2025 44.0035 44.8354 44.0035 48.2911 43.6464C50.5949 43.4679 52.9873 43.2894 55.2025 43.0216C55.2025 43.0216 55.2911 43.0216 55.3797 43.0216C55.557 43.0216 55.7342 43.0216 55.6456 42.7539C55.557 42.4861 55.2025 42.5753 55.0253 42.5753C52.1899 43.1109 49.1772 43.2001 46.1646 43.3787C45.7215 43.3787 45.1899 43.3787 44.7468 43.2894C44.3038 43.2894 43.8608 43.2001 43.4177 43.2001L43.3291 43.0216C43.6835 42.9324 44.038 42.8431 44.3038 42.8431C46.3418 42.7539 48.3797 42.6646 50.4177 42.4861C52.8987 42.2183 55.2911 42.0398 57.5063 41.2365C58.1266 41.0579 58.7468 40.7902 59.2785 40.4331C59.7215 40.0761 60.4304 39.8976 60.962 39.5405C62.1139 39.005 63.2658 38.3802 64.4177 37.8446C64.8608 37.6661 65.2152 37.3983 65.3924 36.952C65.5696 36.5057 66.1013 36.4165 66.3671 35.9702C66.5443 35.6132 66.7215 35.5239 66.7215 35.3454Z" fill="#C2B3B4"/>
<path d="M11.2531 49.8062C11.1645 49.8062 11.0759 49.8062 10.8986 49.8062C10.81 49.8062 10.6328 49.7169 10.6328 49.6276C10.6328 49.5384 10.7214 49.5384 10.81 49.5384C10.8986 49.5384 10.8986 49.5384 10.9872 49.5384C11.0759 49.5384 11.1645 49.5384 11.1645 49.4491C11.1645 49.3599 11.2531 49.2706 11.2531 49.2706C11.4303 49.3599 11.5189 49.5384 11.6961 49.7169C11.6961 49.7169 11.6961 49.8062 11.7847 49.8062C11.6075 49.7169 11.4303 49.8062 11.2531 49.8062ZM12.4936 58.9998C12.405 58.9998 12.2277 58.9998 12.3164 58.8213C12.405 58.5535 11.8733 58.1072 12.3164 57.8395L12.1391 57.6609C11.9619 57.3039 12.0505 57.1254 12.2277 57.0361C12.405 56.9469 12.6708 56.8576 12.848 56.7683C12.9366 56.7683 12.9366 56.6791 13.0252 56.6791C13.0252 56.6791 13.1138 56.6791 13.1138 56.7683C13.2024 56.8576 13.291 57.1254 13.1138 57.2146C13.0252 57.2146 12.9366 57.3039 12.9366 57.3932C13.1138 57.4824 13.1138 57.4824 13.2024 57.4824C13.2024 57.4824 13.291 57.4824 13.291 57.3932C13.6455 57.1254 13.7341 56.5898 13.0252 56.1435C12.9366 56.0543 12.7594 56.0543 12.7594 55.8758C12.7594 55.6972 12.9366 55.6972 13.0252 55.6972C13.7341 55.608 14.1771 55.1617 14.7974 54.8939C14.886 54.8939 14.9746 54.7154 15.0632 54.6261C15.1518 54.4476 15.329 54.0906 15.0632 53.9121C14.7974 53.7335 14.4429 53.4658 14.1771 53.4658C14.1771 53.4658 14.1771 53.4658 14.0885 53.4658C13.9999 53.4658 13.9999 53.4658 13.9113 53.4658C13.7341 53.4658 13.4683 53.3765 13.291 53.198C13.1138 52.841 13.0252 52.3054 13.291 52.1269C13.5569 51.9484 13.7341 51.6806 13.9999 51.5021C14.6202 51.0558 15.1518 50.6987 15.7721 50.2525H15.8607C16.0379 50.2525 16.2151 50.3417 16.3923 50.3417C16.4809 50.3417 16.6581 50.3417 16.7467 50.2525C16.7467 50.2525 16.7467 50.2525 16.8353 50.2525C16.924 50.2525 17.1012 50.431 17.1898 50.6095C17.367 51.0558 17.81 51.3236 18.1645 51.3236C18.2531 51.3236 18.2531 51.3236 18.3417 51.3236C18.6961 51.2343 19.0505 51.145 19.405 51.145C19.5822 51.145 19.7594 51.145 19.9366 51.2343C20.0252 51.2343 20.1138 51.2343 20.2024 51.2343C20.4683 51.2343 20.7341 51.145 20.9999 50.9665C21.1771 50.8773 21.3543 50.6987 21.5315 50.6987C21.6202 50.6987 21.7974 50.788 21.9746 50.8773H22.0632C22.1518 50.8773 22.2404 50.788 22.329 50.6987C23.1265 50.3417 23.6581 49.6276 24.367 49.1814C24.7214 48.9136 25.1645 49.0028 25.5189 48.8243C26.7594 48.1102 27.9999 47.4854 29.329 46.8606C31.9872 45.7003 34.7341 44.8969 37.6581 44.2721C41.0252 43.5581 44.6581 43.5581 48.1138 43.201C50.4176 43.0225 52.81 42.844 55.0252 42.5762C55.0252 42.5762 55.0252 42.5762 55.1138 42.5762H55.2024H55.291C55.4683 42.5762 55.5569 42.5762 55.4683 42.3084C55.3797 42.1299 55.291 42.1299 55.1138 42.1299C55.0252 42.1299 54.9366 42.1299 54.848 42.1299C52.0126 42.6655 48.9999 42.7547 45.9872 42.9332C45.8986 42.9332 45.81 42.9332 45.7214 42.9332C45.367 42.9332 45.0126 42.9332 44.5695 42.844C44.2151 42.844 43.7721 42.7547 43.4176 42.7547C43.329 42.7547 43.329 42.7547 43.2404 42.7547L43.1518 42.5762C43.5062 42.4869 43.8607 42.3977 44.1265 42.3977C46.1645 42.3084 48.2024 42.2192 50.2404 42.0407C52.7214 41.7729 55.1138 41.5944 57.329 40.791C57.9493 40.6125 58.5695 40.3447 59.1012 39.9877C59.5442 39.6307 60.2531 39.4522 60.7847 39.0951C61.9366 38.5596 63.0885 37.9348 64.2404 37.3992C64.6834 37.2207 65.0379 36.9529 65.2151 36.5066C65.3923 36.0603 65.924 35.9711 66.1898 35.5248C66.2784 35.3463 66.4556 35.3463 66.4556 35.0785C65.7467 34.9 65.7467 34.7214 66.0126 34.1859C66.1898 33.9181 66.367 33.6503 66.6328 33.4718C67.4303 33.0255 67.6961 32.0437 68.0505 31.2404V31.1511C68.0505 31.0618 67.9619 30.8833 67.8733 30.8833C67.2531 30.7941 67.7847 30.08 67.2531 29.9015C66.9873 29.8122 66.6328 29.5444 66.367 29.5444C66.2784 29.5444 66.1898 29.5444 66.1012 29.6337C65.2151 29.9907 64.4176 30.437 63.6202 30.8833C63.5316 30.9726 63.3543 31.0618 63.2657 31.0618C63.1771 31.0618 63.1771 31.0618 63.0885 30.9726C62.9113 30.7048 63.0885 30.5263 63.2657 30.437C63.4429 30.2585 63.7088 30.08 63.9746 29.9015C64.2404 29.723 64.329 29.4552 64.329 29.0089C64.2404 29.0089 64.1518 29.0981 64.0632 29.0981C63.9746 29.1874 63.886 29.1874 63.7974 29.1874C63.7088 29.1874 63.7088 29.1874 63.6202 29.0981C63.3543 28.8304 63.7974 28.7411 63.886 28.5626C64.329 27.8485 65.1265 27.4915 65.7467 27.0452C66.81 26.3311 68.0505 25.7063 69.2024 25.0815C69.5569 24.903 69.9113 24.5459 70.1771 24.2782L70.2657 24.1889C70.1771 23.1178 71.2404 23.1178 71.7721 22.5823C72.2151 22.136 72.7467 21.9574 73.1898 21.6004C73.5442 21.3326 73.7214 20.7971 73.9872 20.44C74.1645 20.1723 74.3417 19.9045 74.6961 19.6367C75.0505 19.9045 75.405 20.1723 75.7594 20.44C76.5569 21.1541 76.5569 20.9756 76.2024 21.9574C76.0252 22.4037 75.9366 22.9393 76.0252 23.4748C76.0252 23.6534 76.1138 24.0104 76.3797 24.0104C76.6455 24.0104 76.7341 23.7426 76.6455 23.4748C76.6455 23.3856 76.5569 23.2963 76.5569 23.2071C76.5569 23.1178 76.5569 22.9393 76.6455 22.9393C76.6455 22.9393 76.6455 22.9393 76.7341 22.9393C77.0885 22.9393 77.0885 22.5823 77.0885 22.4037C77.0885 22.3145 77.1771 22.2252 77.2657 22.2252C77.3543 22.2252 77.3543 22.3145 77.4429 22.3145C77.7088 22.5823 77.886 22.85 77.7974 23.2071C77.7088 23.4748 77.7088 23.7426 77.7088 24.0997C77.7088 24.2782 77.7974 24.4567 77.6202 24.4567C77.6202 24.4567 77.6202 24.4567 77.5316 24.4567C77.3543 24.4567 77.3543 24.2782 77.2657 24.1889C77.1771 24.0997 77.1771 24.0104 77.0885 24.0104C77.0885 24.0104 77.0885 24.0104 76.9999 24.0104C76.9113 24.0104 76.9113 24.1889 76.9999 24.2782C77.0885 24.3674 77.0885 24.5459 77.0885 24.6352C76.9999 25.0815 76.9113 25.5278 76.5569 25.8848C76.4683 26.0633 76.291 26.3311 76.4683 26.5096C76.6455 26.6882 76.9113 26.8667 77.1771 26.9559C77.5316 27.0452 77.886 26.9559 78.2404 27.1345C78.5062 27.313 78.7721 27.4022 78.9493 27.4022C79.0379 27.4022 79.0379 27.4022 79.0379 27.4022C79.2151 27.313 79.3923 27.313 79.5695 27.313C79.8354 27.313 80.1012 27.4022 80.367 27.7593H80.4556C80.81 27.7593 80.9873 28.027 81.1645 28.3841C81.2531 28.6518 81.3417 28.9196 81.6075 29.1874C81.8733 29.4552 81.9619 29.8122 81.8733 30.08C81.5189 30.7048 81.3417 31.4189 80.9873 32.0437C80.81 32.4007 80.367 32.6685 80.1012 32.9363C78.8607 34.1859 77.5316 35.3463 76.1138 36.3281C75.848 36.5066 75.7594 37.1314 76.0252 37.4885C76.1138 37.5777 76.2024 37.667 76.291 37.667C76.7341 37.7562 77.1771 37.8455 77.5316 37.9348C78.1518 38.024 78.5062 38.7381 78.329 39.2736C77.7974 40.5233 76.9113 41.3266 75.5822 41.5051C74.6961 41.5944 73.8986 41.9514 73.367 42.5762C72.5695 43.5581 71.5062 44.0936 70.4429 44.7184C69.7341 45.1647 69.0252 45.7003 68.3164 46.1466C67.5189 46.6821 66.5442 47.1284 65.8354 47.664C65.3923 48.021 64.7721 48.1995 64.329 48.5565C63.886 48.9136 63.4429 49.2706 62.7341 49.2706C62.6455 49.2706 62.5569 49.2706 62.4683 49.2706H62.3797C61.848 49.2706 61.4936 49.7169 61.1391 49.8954C60.5189 50.2525 59.81 50.3417 59.2784 50.8773H59.1012C59.0126 50.8773 59.0126 50.8773 58.924 50.8773C58.4809 50.8773 58.1265 51.145 57.7721 51.2343C56.886 51.5913 56.0885 51.9484 55.1138 52.1269C54.6708 52.2161 54.2278 52.3947 53.7847 52.6624C53.3417 52.9302 52.8986 53.1087 52.367 53.3765C52.1898 53.4658 52.0126 53.6443 51.8353 53.6443C51.7467 53.6443 51.6581 53.6443 51.5695 53.555C51.5695 53.555 51.5695 53.555 51.4809 53.555C51.3923 53.555 51.3923 53.6443 51.3037 53.6443C51.0379 54.2691 50.329 54.2691 49.7974 54.3584C49.0885 54.4476 48.3797 54.6261 47.7594 54.8047C46.8733 55.0724 45.9872 55.4295 45.0126 55.4295C44.6581 55.4295 44.3923 55.4295 44.0379 55.4295C43.7721 55.4295 43.5062 55.4295 43.2404 55.5187C42.4429 55.608 41.6455 55.7865 40.848 55.8758C40.2278 55.965 39.5189 55.965 38.8986 55.965C38.2784 55.965 37.7467 55.965 37.1265 55.7865C36.9493 55.7865 36.8607 55.6972 36.6834 55.6972C36.5948 55.6972 36.5948 55.6972 36.5948 55.6972C35.886 55.8758 35.1771 55.7865 34.5569 55.8758C34.4683 55.8758 34.4683 55.8758 34.3797 55.8758C34.291 55.8758 34.291 55.8758 34.2024 55.8758C34.1138 55.8758 34.1138 55.8758 34.0252 55.965C33.848 56.1435 33.5822 56.2328 33.3164 56.2328C33.2278 56.2328 33.1391 56.2328 32.9619 56.2328C32.8733 56.2328 32.7847 56.2328 32.6075 56.2328C32.5189 56.2328 32.4303 56.2328 32.3417 56.2328L32.2531 56.1435C32.2531 55.965 32.0759 55.965 31.9872 55.8758C31.6328 55.7865 31.367 55.6972 31.0126 55.6972C30.8353 55.6972 30.5695 55.6972 30.3923 55.7865C30.2151 55.8758 29.9493 55.8758 29.6834 55.8758H29.5948C29.5062 55.8758 29.4176 55.8758 29.329 55.8758C28.7974 55.8758 28.3543 55.965 27.9113 56.0543C27.8227 56.0543 27.7341 56.1435 27.6455 56.1435H27.5569C27.4683 56.0543 27.291 56.0543 27.2024 56.0543C26.9366 56.0543 26.7594 56.2328 26.5822 56.322C26.3164 56.5006 26.0505 56.6791 25.7847 56.6791C25.7847 56.6791 25.7847 56.6791 25.6961 56.6791C25.0759 56.6791 24.4556 56.5898 23.7467 56.5006C23.2151 56.4113 22.7721 56.322 22.2404 56.322C21.9746 56.322 21.6202 56.3221 21.3543 56.4113H21.2657C20.9999 56.4113 20.8227 56.2328 20.8227 56.0543C20.7341 55.8758 20.7341 55.8758 20.6455 55.8758C20.5569 55.8758 20.5569 55.8758 20.4683 55.965C20.1138 56.0543 19.848 56.322 19.405 56.322C18.7847 56.4113 18.1645 56.5006 17.4556 56.6791C16.7467 56.8576 16.0379 56.8576 15.329 57.1254C15.2404 57.2146 15.0632 57.1254 14.886 57.2146C14.6202 57.3039 14.1771 57.1254 13.9113 57.3932C13.6455 57.6609 13.291 57.7502 12.9366 57.8395C12.6708 57.8395 12.4936 58.018 12.3164 58.1072C13.0252 58.8213 12.848 58.9998 12.4936 58.9998Z" fill="#D1C3C5"/>
<path d="M18.2534 51.3235C17.8989 51.3235 17.5445 51.0557 17.2787 50.6094C17.1901 50.4309 17.1015 50.2524 16.9243 50.2524C16.9243 50.2524 16.9243 50.2524 16.8357 50.2524C16.747 50.3416 16.5698 50.3416 16.4812 50.3416C16.304 50.3416 16.1268 50.3416 15.9496 50.2524H15.861C16.2154 50.0739 16.4812 49.8061 16.8357 49.6276C16.9243 49.5383 17.1901 49.4491 17.0129 49.2705C16.9243 49.1813 16.8357 49.092 16.747 49.092C16.6584 49.092 16.5698 49.1813 16.5698 49.2705C16.5698 49.2705 16.5698 49.3598 16.4812 49.3598C16.4812 49.3598 16.4812 49.3598 16.3926 49.2705C16.304 49.1813 16.304 49.092 16.2154 49.092C16.1268 49.092 16.0382 49.1813 16.0382 49.1813C15.9496 49.1813 15.7724 49.2705 15.6838 49.2705C15.6838 49.2705 15.6838 49.2705 15.5951 49.2705C15.5065 49.2705 15.4179 49.2705 15.3293 49.2705C15.1521 49.2705 14.9749 49.2705 14.7977 49.3598C14.6205 49.3598 14.4432 49.449 14.266 49.449C14.1774 49.449 14.1774 49.449 14.0888 49.449C14.0002 49.449 13.9116 49.449 13.823 49.449C13.4686 49.449 13.2027 49.5383 12.8483 49.5383C12.4053 49.5383 12.0508 49.5383 11.6078 49.6276L11.5192 49.5383C11.4306 49.3598 11.2534 49.1813 11.0762 49.092C11.342 48.8242 11.6964 48.735 12.0508 48.735H12.1394H12.2281C12.3167 48.735 12.4053 48.735 12.4053 48.5565C12.4053 48.4672 12.4053 48.3779 12.3167 48.3779C12.2281 48.3779 12.2281 48.3779 12.1394 48.3779C12.0508 48.3779 12.0508 48.3779 12.0508 48.5565C12.0508 48.6457 11.8736 48.735 11.785 48.735H11.6964C11.6964 48.5565 11.6078 48.4672 11.6078 48.4672H11.5192H11.4306C11.342 48.4672 11.2534 48.4672 11.1648 48.4672C10.8989 48.4672 10.6331 48.735 10.2787 48.735C10.1901 48.735 10.1901 48.735 10.1015 48.735C9.74704 48.735 9.30401 48.735 8.94958 48.6457C8.59515 48.5565 8.50654 48.4672 8.59514 48.1102V48.0209C8.59514 47.5746 8.94958 47.6639 9.2154 47.6639C9.2154 47.6639 9.2154 47.6639 9.30401 47.6639C9.48122 47.6639 9.39261 47.8424 9.39261 47.9317C9.48122 48.0209 9.56983 48.0209 9.65844 48.0209C9.74704 48.0209 9.83565 48.0209 9.92426 48.0209C10.3673 48.0209 10.7217 47.8424 11.0762 47.7531C11.1648 47.7531 11.2534 47.6639 11.1648 47.5746C11.1648 47.4854 11.0762 47.3961 10.9875 47.3961C10.8989 47.3961 10.8103 47.3961 10.7217 47.3961C10.5445 47.3961 10.4559 47.3961 10.2787 47.3961C10.1015 47.3961 10.0129 47.3961 9.83565 47.3961C9.65844 47.3961 9.48122 47.3961 9.30401 47.4854C9.2154 47.4854 9.03818 47.4854 8.94958 47.4854C8.77236 47.4854 8.50654 47.3961 8.24071 47.3068C8.32932 47.2176 8.41793 47.2176 8.41793 47.2176H8.50654H8.59514C8.68375 47.2176 8.68375 47.2176 8.68375 47.1283C8.77236 46.7713 9.03818 46.682 9.39261 46.682C9.48122 46.682 9.56983 46.5928 9.56983 46.4143C9.56983 46.325 9.39261 46.325 9.30401 46.325C9.2154 46.325 9.03818 46.2357 8.94958 46.2357C8.59515 46.2357 8.32932 46.4143 7.97489 46.4143C7.88628 46.4143 7.88628 46.4143 7.88628 46.4143C7.53185 46.4143 7.44325 46.1465 7.26603 45.968C7.08882 45.7894 7.17742 45.6109 7.35464 45.5217C7.62046 45.3431 7.97489 45.3431 8.24071 45.2539C8.50654 45.2539 8.59514 45.1646 8.32932 44.8969C8.15211 44.7183 7.88628 44.6291 7.79768 44.3613C7.79768 44.272 7.70907 44.0935 7.79768 44.0935C7.79768 44.0935 7.79768 44.0935 7.88628 44.0935C8.15211 44.1828 8.41793 44.272 8.59514 44.272C8.86097 44.272 9.2154 44.1828 9.48122 44.1828C9.65844 44.1828 9.65844 44.0935 9.83565 44.0043C9.56983 43.915 9.48122 43.915 9.30401 43.7365C8.86097 43.4687 8.86097 43.2902 9.2154 43.0224C9.30401 42.9332 9.30401 42.8439 9.48122 42.8439C9.48122 42.8439 9.48122 42.8439 9.56983 42.8439L9.65844 42.9332C9.65844 43.1117 9.48122 43.0224 9.39261 43.2009C9.83565 43.2009 10.2787 43.1117 10.4559 42.8439C10.6331 42.6654 10.7217 42.5761 10.8989 42.5761C10.9876 42.5761 10.9876 42.5761 11.0762 42.5761C12.0508 42.6654 13.0255 42.7546 14.0002 42.7546C14.5319 42.7546 14.9749 42.7546 15.5065 42.7546C16.1268 42.7546 16.747 42.7546 17.3673 42.6654C18.785 42.3976 20.2913 42.3976 21.7091 42.2191C23.5698 41.9513 25.4306 41.8621 27.2027 41.4158C28.4432 41.148 29.861 41.0587 31.0129 40.7017C31.8989 40.4339 32.785 40.4339 33.5825 40.0769H33.6711C33.6711 40.0769 33.7597 40.0769 33.7597 40.1661C33.8483 40.2554 33.7597 40.3447 33.7597 40.3447C33.5825 40.6124 33.2281 40.6124 32.9622 40.8802C33.0508 40.8802 33.0508 40.8802 33.1395 40.8802C33.2281 40.8802 33.2281 40.8802 33.3167 40.791C33.4053 40.791 33.4053 40.7017 33.4939 40.7017C33.4939 40.7017 33.4939 40.7017 33.5825 40.7017C33.6711 40.7017 33.7597 40.791 33.7597 40.791C33.8483 40.791 34.0255 40.7017 34.1141 40.7017C34.2027 40.6124 34.38 40.6124 34.4686 40.6124C34.5572 40.6124 34.6458 40.6124 34.7344 40.7017C35.6205 40.3447 36.5951 40.3447 37.4812 39.9876C38.1901 39.7199 38.8103 39.3628 39.5192 39.1843C39.6078 39.1843 39.6964 39.1843 39.6964 39.0058C39.6078 38.738 39.785 38.6487 39.8736 38.5595C40.4053 38.2917 40.7597 37.8454 41.38 37.6669C41.7344 37.5776 42.0002 37.4884 42.3546 37.3991C42.7091 37.2206 43.0635 37.0421 43.3293 36.6851C43.2407 36.6851 43.2407 36.5958 43.1521 36.5958H43.0635H42.9749C42.9749 36.5958 42.8863 36.5958 42.7977 36.5958C42.9749 36.4173 43.0635 36.1495 43.3293 36.0602C44.1268 35.614 44.9243 35.0784 45.6331 34.4536C46.6964 33.561 48.0255 33.0254 49.0888 31.9543C49.6205 31.4188 50.2407 31.0618 50.861 30.7047C50.9496 30.6155 51.0382 30.5262 51.0382 30.4369C51.2154 29.8121 51.747 29.3658 51.9243 28.6518L52.1015 28.4733C52.2787 28.2947 52.4559 28.027 52.5445 27.7592C52.6331 27.4914 52.8103 27.2236 53.0762 27.2236C53.2534 27.1344 53.5192 27.0451 53.342 26.6881C53.2534 26.5988 53.342 26.5096 53.342 26.4203C53.6964 25.8848 53.785 25.2599 53.9622 24.6351C54.0508 24.2781 54.4053 24.0996 54.7597 24.0996C54.8483 24.0996 54.9369 24.0996 55.0255 24.0996H55.1141C55.2027 24.0996 55.2027 24.0996 55.2027 24.0103C55.0255 23.564 55.38 23.4748 55.6458 23.3855C55.823 23.2963 56.0002 23.2963 56.1774 23.207C56.6205 22.85 57.0635 22.4037 57.5065 22.0466L57.5951 21.8681C57.5951 21.6003 57.861 21.4218 58.0382 21.2433C58.304 21.0648 58.4812 20.797 58.747 20.5292C59.0129 20.2615 59.3673 19.9044 59.7217 19.8152C60.0762 19.7259 60.1648 19.6366 60.1648 19.2796C60.1648 19.0118 60.4306 18.8333 60.6078 18.8333H60.6964C61.0508 19.1904 61.3167 19.0118 61.5825 19.1011C61.6711 19.1011 61.6711 19.1011 61.7597 19.1011C61.8483 19.1011 61.8483 19.0118 61.7597 18.9226C61.5825 18.6548 61.6711 18.5655 61.8483 18.4763C62.0255 18.387 62.2913 18.2978 62.4686 18.03C62.823 17.673 63.5319 17.8515 63.7977 17.3159H63.9749C64.5065 17.4052 64.9496 17.4052 65.4812 17.4052C65.6584 17.4052 65.9243 17.4052 66.0129 17.5837C66.2787 17.9407 66.6331 18.1192 66.9876 18.387C67.2534 18.6548 67.6078 18.7441 67.8736 18.7441C68.0508 18.7441 68.2281 18.7441 68.3167 18.6548C68.4053 18.5655 68.5825 18.5655 68.6711 18.5655C68.9369 18.4763 69.2914 18.4763 69.6458 18.4763C69.823 18.4763 69.9116 18.4763 70.0888 18.4763C70.5319 18.4763 70.9749 18.6548 71.3293 18.6548C71.4179 18.6548 71.5065 18.6548 71.5065 18.6548H71.5952C71.7724 18.6548 71.9496 18.7441 72.1268 18.8333C72.304 18.9226 72.4812 19.0118 72.6584 19.0118C72.747 19.0118 72.8357 19.0118 72.8357 18.9226C72.9243 18.9226 73.0129 19.1011 73.1901 19.1904L73.3673 19.3689C73.4559 19.4581 73.7217 19.5474 73.8103 19.5474C73.8989 19.5474 74.0762 19.4581 74.0762 19.3689C74.0762 19.1904 74.1648 19.1011 74.2534 19.1011C74.342 19.1011 74.4306 19.1904 74.5192 19.1904C74.6964 19.2796 74.785 19.3689 74.9622 19.4581C74.6964 19.6366 74.5192 19.9044 74.2534 20.2615C73.9876 20.6185 73.8103 21.0648 73.4559 21.4218C73.0129 21.7789 72.3926 22.0466 72.0382 22.4037C71.5065 22.9392 70.4432 22.85 70.5319 24.0103L70.4432 24.0996C70.0888 24.3674 69.823 24.7244 69.4686 24.9029C68.3167 25.5277 67.0762 26.1525 66.0129 26.8666C65.304 27.3129 64.5951 27.6699 64.1521 28.384C64.0635 28.5625 63.6205 28.6518 63.8863 28.9195C63.9749 29.0088 63.9749 29.0088 64.0635 29.0088C64.1521 29.0088 64.2407 28.9195 64.3293 28.9195C64.4179 28.8303 64.5065 28.8303 64.5951 28.8303C64.5951 29.2766 64.5065 29.5444 64.2407 29.7229C63.9749 29.9014 63.7977 29.9907 63.5319 30.2584C63.4432 30.3477 63.1774 30.5262 63.3546 30.794C63.4432 30.8832 63.4432 30.8832 63.5319 30.8832C63.6205 30.8832 63.7977 30.794 63.8863 30.7047C64.6838 30.2584 65.5698 29.8121 66.3673 29.4551C66.4559 29.4551 66.5445 29.3658 66.6331 29.3658C66.8989 29.3658 67.2534 29.5444 67.5192 29.7229C68.1395 29.9014 67.5192 30.6155 68.1395 30.7047C68.2281 30.7047 68.3167 30.8832 68.3167 30.9725V31.0618C67.9622 31.8651 67.6964 32.8469 66.8989 33.2932C66.6331 33.4717 66.4559 33.7395 66.2787 34.0073C66.0129 34.5428 66.0129 34.6321 66.7217 34.8999C66.7217 35.0784 66.5445 35.1677 66.4559 35.3462C66.1901 35.7925 65.6584 35.8817 65.4812 36.328C65.304 36.7743 64.9496 37.0421 64.5065 37.2206C63.3546 37.8454 62.2027 38.381 61.0508 38.9165C60.5192 39.1843 59.8989 39.3628 59.3673 39.8091C58.8357 40.1661 58.2154 40.4339 57.5951 40.6124C55.38 41.3265 52.8989 41.5943 50.5065 41.8621C48.4686 42.0406 46.4306 42.1298 44.3926 42.2191C44.0382 42.2191 43.6838 42.3084 43.4179 42.3976L43.5065 42.5761C43.5951 42.5761 43.5951 42.5761 43.6838 42.5761C44.0382 42.5761 44.3926 42.5761 44.8357 42.6654C45.1901 42.6654 45.6331 42.7546 45.9876 42.7546C46.0762 42.7546 46.1648 42.7546 46.2534 42.7546C49.266 42.5761 52.2787 42.4869 55.1141 41.9513C55.2027 41.9513 55.2913 41.9513 55.38 41.9513C55.5572 41.9513 55.6458 41.9513 55.7344 42.1298C55.823 42.3084 55.6458 42.3976 55.5572 42.3976H55.4686H55.38H55.2913C52.9876 42.6654 50.6838 42.8439 48.38 43.0224C44.8357 43.2902 41.2913 43.3795 37.9243 44.0935C35.0002 44.7183 32.2534 45.5217 29.5951 46.682C28.266 47.2176 27.0255 47.9316 25.785 48.6457C25.4306 48.8242 24.9876 48.735 24.6331 49.0028C23.9243 49.5383 23.3926 50.1631 22.5951 50.5201C22.5065 50.6094 22.4179 50.6987 22.3293 50.6987H22.2407C22.0635 50.5202 21.8863 50.5201 21.7977 50.5201C21.6205 50.5201 21.4432 50.6987 21.266 50.7879C21.0002 50.8772 20.7344 51.0557 20.4686 51.0557C20.38 51.0557 20.2913 51.0557 20.2027 51.0557C20.0255 51.0557 19.8483 50.9664 19.6711 50.9664C19.3167 50.9664 18.9622 51.0557 18.6078 51.145C18.342 51.3235 18.342 51.3235 18.2534 51.3235Z" fill="#AA9FA0"/>
<path d="M34.1137 40.3448C34.0251 40.3448 33.9365 40.3448 33.9365 40.2555C33.9365 40.1662 34.0251 40.1662 34.1137 40.077C34.5568 40.077 34.9112 39.8092 35.3542 39.6307C35.7087 39.4522 36.1517 39.3629 36.5061 39.0951C36.772 38.9166 37.215 38.8274 37.5694 38.7381C38.4555 38.4703 39.1644 38.024 39.9618 37.5777C40.6707 37.1314 41.5568 36.9529 42.3542 36.7744C42.3542 36.7744 42.4429 36.7744 42.5315 36.8637C42.177 37.0422 41.8226 37.31 41.4682 37.4885C40.4049 37.9348 39.3416 38.2918 38.3669 38.7381C37.3922 39.1844 36.5061 39.8092 35.4429 40.1662C34.9112 40.1662 34.5568 40.3448 34.1137 40.3448C34.2023 40.3448 34.1137 40.3448 34.1137 40.3448Z" fill="#AA9FA0"/>
<path d="M69.8229 26.4206L73.0128 32.5795L77.0001 24.9032L78.0634 34.7217H77.0887L76.3799 28.2058L73.0128 34.7217L72.4811 33.6506L69.6457 28.1165L68.8482 34.7217H67.8735L69.0254 24.814L69.8229 26.4206Z" fill="black"/>
<path d="M80.4557 24.814H79.481V34.6324H80.4557V24.814Z" fill="black"/>
<path d="M83.1139 24.814V33.7398H87.6328V34.7217H82.1392V24.814H83.1139Z" fill="black"/>
<path d="M90.0255 24.814V33.7398H94.6331V34.7217H89.0508V24.814H90.0255Z" fill="black"/>
<path d="M97.0254 24.814H96.0508V34.6324H97.0254V24.814Z" fill="black"/>
<path d="M110.493 24.814V25.7958H104.911V30.9728L105.088 30.8836C105.797 30.5265 106.506 30.5265 107.304 30.5265C108.278 30.5265 108.81 30.2587 109.076 29.991L109.785 30.705C109.253 31.2406 108.456 31.5084 107.304 31.5084C106.595 31.5084 105.974 31.5976 105.531 31.7761C105.088 31.9547 104.911 32.2224 104.911 32.9365V34.6324H103.937V24.814H110.493Z" fill="black"/>
<path d="M115.633 24.9925C117.228 25.4388 118.202 26.9562 118.202 28.5628V34.6324H117.228V33.3828C117.139 33.4721 116.962 33.6506 116.873 33.7398C116.076 34.3646 115.101 34.7217 114.215 34.7217C113.329 34.7217 112.443 34.4539 111.823 34.0076C111.202 33.4721 110.759 32.6687 110.759 31.6869C110.759 30.5265 111.38 29.7232 112.177 29.3662C112.974 29.0091 113.861 28.9199 114.747 28.9199C115.633 28.9199 116.43 28.8306 116.873 28.7413C117.405 28.5628 117.316 28.0273 117.139 27.4917C116.785 26.7777 116.253 26.2421 115.455 26.0636C114.304 25.7066 113.063 26.1528 112.443 27.2239L111.557 26.5099C112.177 25.4388 113.329 24.9032 114.481 24.814H114.658C115.012 24.814 115.367 24.9032 115.633 24.9925ZM117.139 29.5447C116.43 29.8124 115.633 29.8125 114.747 29.8125C113.949 29.8125 113.063 29.9017 112.531 30.1695C112 30.4373 111.734 30.7943 111.734 31.5976C111.734 32.3117 112 32.758 112.443 33.115C112.886 33.4721 113.506 33.6506 114.215 33.6506C114.924 33.6506 115.721 33.3828 116.253 32.9365C116.785 32.4902 117.228 31.6869 117.228 30.5265V29.4554L117.139 29.5447Z" fill="black"/>
<path d="M126.443 24.814C126.443 26.7777 126.089 28.0273 125.469 28.8306C125.291 29.0984 125.114 29.2769 124.937 29.4554C125.38 29.6339 125.734 29.991 126 30.4373C126.532 31.2406 126.532 32.3117 126.089 33.2043C125.646 34.0969 124.76 34.6324 123.874 34.6324H119.886V24.814H126.443ZM120.95 25.7958V30.705C121.038 30.6158 121.127 30.6158 121.215 30.5265C121.836 30.0802 122.633 29.8124 123.165 29.5447C123.785 29.1876 124.317 28.9199 124.76 28.2951C125.114 27.7595 125.38 27.0454 125.469 25.7958H120.95ZM123.608 30.4373C122.987 30.7943 122.279 31.0621 121.747 31.4191C121.215 31.7761 120.95 32.0439 120.95 32.4902V33.6506H123.962C124.494 33.6506 125.025 33.2935 125.38 32.758C125.646 32.2224 125.646 31.5084 125.291 30.9728C125.025 30.5265 124.582 30.2587 124.051 30.1695C123.874 30.2587 123.696 30.348 123.608 30.4373Z" fill="black"/>
<path d="M134.683 24.814C134.683 28.1165 133.177 29.6339 131.759 30.4373C131.582 30.5265 131.494 30.6158 131.316 30.705L134.683 34.6324H133.354L130.342 31.1513C130.164 31.2406 129.987 31.3298 129.81 31.4191C129.367 31.6869 129.101 31.9547 129.101 32.4902V34.6324H128.126V24.814H134.683ZM129.101 30.7943L129.278 30.705C129.899 30.348 130.519 30.0802 131.228 29.6339C132.38 29.0091 133.443 28.1165 133.62 25.8851H129.101V30.7943Z" fill="black"/>
<path d="M137.253 24.814H136.278V34.6324H137.253V24.814Z" fill="black"/>
<path d="M147 26.3313L146.291 27.0454C145.139 25.885 143.544 25.528 142.038 26.1528C140.62 26.7776 139.646 28.2058 139.646 29.8124C139.646 31.4191 140.62 32.8472 142.038 33.472C143.456 34.0968 145.139 33.7398 146.291 32.5794L147 33.2935C145.582 34.7216 143.544 35.1679 141.684 34.3646C139.911 33.5613 138.671 31.7761 138.671 29.8124C138.671 27.8487 139.823 26.0635 141.684 25.2602C142.215 24.9924 142.835 24.9032 143.456 24.9032C144.785 24.8139 146.025 25.3495 147 26.3313Z" fill="black"/>
<path d="M52.2785 25.3493C52.1899 25.3493 52.1013 25.3493 51.924 25.3493C51.5696 22.6715 49.2658 20.5293 46.4304 20.5293C43.5949 20.5293 41.2911 22.5822 40.9367 25.3493C40.8481 25.3493 40.7595 25.3493 40.5823 25.3493C37.481 25.3493 35 27.8485 35 30.9726C35 34.0966 37.481 36.5959 40.5823 36.5959C41.2911 36.5959 42 36.4173 42.6203 36.1496C43.5949 37.0422 44.9241 37.5777 46.3418 37.5777C47.7595 37.5777 49.0886 37.0422 50.0633 36.1496C50.6835 36.4173 51.3924 36.5959 52.1013 36.5959C55.2025 36.5959 57.6835 34.0966 57.6835 30.9726C57.6835 27.8485 55.2911 25.3493 52.2785 25.3493Z" fill="white"/>
<path d="M51.5698 24.4568H51.3926C51.2154 24.4568 51.1268 24.4568 51.0382 24.4568L51.1268 25.3494L52.0129 25.2601C51.5698 22.1361 48.9116 19.7261 45.6331 19.7261C42.3546 19.7261 39.6964 22.1361 39.2534 25.2601L40.1395 25.3494L40.2281 24.4568C40.1395 24.4568 40.0508 24.4568 39.8736 24.4568C36.3293 24.4568 33.4053 27.3131 33.4053 30.9727C33.4053 34.6323 36.2407 37.4886 39.8736 37.4886C40.7597 37.4886 41.5572 37.31 42.266 37.0423L41.9116 36.2389L41.2913 36.8637C42.4432 37.9348 43.9496 38.5597 45.6331 38.5597C47.3167 38.5597 48.823 37.9348 49.9749 36.8637L49.3546 36.2389L49.0002 37.0423C49.7091 37.31 50.5951 37.4886 51.3926 37.4886C54.9369 37.4886 57.861 34.6323 57.861 30.9727C57.861 27.4916 55.1141 24.6353 51.747 24.4568C51.6584 24.4568 51.1268 24.4568 51.0382 24.4568L51.2154 26.4205C52.5445 26.4205 53.8736 26.7775 54.6711 27.5808C55.5572 28.4734 56.0002 29.6338 56.0002 30.8834C56.0002 32.2223 55.4686 33.3827 54.6711 34.186C53.785 35.0786 52.6331 35.5249 51.3926 35.5249C50.7724 35.5249 50.1521 35.4356 49.6205 35.1678L49.0888 34.9893L48.6458 35.3463C47.8483 36.1497 46.6964 36.596 45.5445 36.596C44.304 36.596 43.2407 36.1497 42.4432 35.3463L42.0002 34.9893L41.4686 35.3463C40.9369 35.5249 40.3167 35.7034 39.6964 35.7034C38.3673 35.7034 37.2154 35.1678 36.4179 34.3645C35.5319 33.4719 35.0888 32.3115 35.0888 31.0619C35.0888 29.8123 35.6205 28.5627 36.4179 27.7594C37.304 26.8668 38.4559 26.4205 39.6964 26.4205C39.785 26.4205 39.8736 26.4205 39.9622 26.4205L40.7597 26.5097L40.8483 25.7064C41.2027 23.3857 43.0635 21.6898 45.4559 21.6898C47.8483 21.6898 49.7091 23.4749 50.0635 25.7064L50.1521 26.5097L50.9496 26.4205C51.0382 26.4205 51.2154 26.4205 51.2154 26.4205V25.3494" fill="black"/>
<path d="M47.494 35.8817C47.3168 36.0602 47.1396 36.328 46.8737 36.5065C46.9623 36.0602 46.9623 35.6139 46.9623 35.1676C46.9623 32.7576 45.5446 30.7939 45.5446 30.7939C45.5446 30.7939 44.1269 32.7576 44.1269 35.1676C44.1269 35.6139 44.1269 36.0602 44.2155 36.5065C44.0383 36.328 43.8611 36.0602 43.6839 35.8817C42.0003 34.1858 39.6079 33.8287 39.6079 33.8287C39.6079 33.8287 39.9623 36.2387 41.6459 37.9346C42.4434 38.738 45.013 40.2554 45.6332 40.2554C46.2535 40.2554 48.8231 38.738 49.6206 37.9346C51.3041 36.2387 51.6585 33.8287 51.6585 33.8287C51.6585 33.8287 49.1775 34.1858 47.494 35.8817Z" fill="black"/>
<path d="M54.5824 29.7232C55.2913 30.9728 54.7596 32.758 53.6077 33.5613C53.2533 33.8291 53.6077 34.3646 53.9622 34.0969C55.4685 33.115 56.0001 30.9728 55.2027 29.3662C54.9369 29.0091 54.4052 29.3661 54.5824 29.7232Z" fill="black"/>
<path d="M42.0001 25.2602V24.9924L42.0887 24.8139V24.7246C42.1773 24.6354 42.1774 24.5461 42.266 24.4569L42.3546 24.3676L42.4432 24.1891L42.5318 24.0998L42.6204 24.0106C42.709 23.9213 42.7976 23.832 42.8862 23.832L43.0634 23.7428H43.152C43.2406 23.7428 43.4179 23.6535 43.5065 23.6535C43.6837 23.6535 43.7723 23.3857 43.7723 23.2072C43.6837 23.0287 43.5065 22.9395 43.3292 22.9395C42.3546 23.0287 41.4685 24.0998 41.3799 25.2602C41.3799 25.4387 41.5571 25.6172 41.7343 25.6172C41.9115 25.528 42.0001 25.4387 42.0001 25.2602Z" fill="black"/>
</g>
<defs>
<clipPath id="clip0_402_197">
<rect width="147" height="59" fill="white"/>
</clipPath>
</defs>
</svg>
