<svg width="287" height="287" viewBox="0 0 287 287" fill="none" xmlns="http://www.w3.org/2000/svg">
<path d="M198.326 203.214L162.699 193.93V173.068C167.216 171.034 171.256 168.077 174.562 164.388C179.437 158.992 182.608 152.412 184.64 145.782H196.398C198.622 145.782 200.755 144.9 202.329 143.329C203.904 141.759 204.791 139.628 204.797 137.404V119.348C204.79 117.135 203.911 115.015 202.35 113.447C200.789 111.88 198.673 110.991 196.461 110.974C196.281 105.876 195.13 92.6657 188.394 80.425C192.241 81.6925 196.39 81.7085 200.246 80.4709C204.103 79.2333 207.467 76.8056 209.858 73.5364C212.248 70.2673 213.542 66.3247 213.552 62.2748C213.562 58.2249 212.289 54.2758 209.915 50.9947C207.541 47.7135 204.188 45.2689 200.338 44.0118C196.488 42.7547 192.339 42.7499 188.486 43.9979C184.633 45.2459 181.275 47.6826 178.893 50.9582C176.512 54.2338 175.229 58.1799 175.23 62.2298C175.232 63.268 175.318 64.3044 175.486 65.3288C167.285 59.2022 156.972 56.0905 144.735 56.0696H144.567C129.664 56.0989 117.617 60.6887 108.756 69.7548C94.9576 83.8516 93.0764 104.323 92.8412 110.974C90.6291 110.991 88.5129 111.88 86.9522 113.447C85.3915 115.015 84.5123 117.135 84.5058 119.348V137.404C84.5112 139.619 85.391 141.741 86.9537 143.31C88.5163 144.879 90.6353 145.767 92.8496 145.782H104.469C106.539 152.408 109.739 158.988 114.631 164.384C117.893 168.006 121.862 170.922 126.292 172.955V193.93L90.666 203.214C86.2953 204.356 82.4265 206.915 79.6646 210.49C76.9027 214.065 75.4037 218.454 75.4019 222.972V231.815C75.4019 232.372 75.6231 232.906 76.0168 233.3C76.4106 233.694 76.9446 233.915 77.5015 233.915C78.0583 233.915 78.5924 233.694 78.9861 233.3C79.3799 232.906 79.6011 232.372 79.6011 231.815V222.972C79.6012 219.383 80.7918 215.895 82.9864 213.056C85.181 210.216 88.2555 208.184 91.7284 207.279L127.758 197.886L142.875 213.062C143.07 213.256 143.302 213.411 143.557 213.516C143.812 213.621 144.086 213.675 144.361 213.675H144.622C144.898 213.675 145.171 213.621 145.426 213.516C145.681 213.411 145.913 213.256 146.108 213.062L161.225 197.886L197.255 207.279C200.728 208.184 203.802 210.216 205.997 213.056C208.191 215.895 209.382 219.383 209.382 222.972V231.815C209.382 232.372 209.603 232.906 209.997 233.3C210.391 233.694 210.925 233.915 211.482 233.915C212.039 233.915 212.573 233.694 212.966 233.3C213.36 232.906 213.581 232.372 213.581 231.815V222.972C213.581 218.455 212.083 214.066 209.323 210.491C206.562 206.917 202.695 204.357 198.326 203.214ZM142.274 120.679C141.766 117.225 140.034 114.068 137.393 111.784C134.752 109.501 131.379 108.242 127.888 108.236H118.952C129.908 102.945 144.681 95.1139 155.544 86.7155C158.483 90.9147 166.042 101.224 173.899 108.245H173.638H161.511C158.019 108.25 154.646 109.509 152.004 111.792C149.363 114.076 147.63 117.233 147.12 120.687L142.274 120.679ZM108.034 115.896C109.005 114.808 110.195 113.937 111.525 113.341C112.856 112.744 114.298 112.436 115.756 112.436H127.888C130.631 112.436 133.262 113.525 135.201 115.465C137.141 117.405 138.231 120.035 138.231 122.778C138.231 125.521 137.141 128.152 135.201 130.092C133.262 132.031 130.631 133.121 127.888 133.121H115.756C113.763 133.12 111.812 132.543 110.138 131.459C108.465 130.375 107.141 128.83 106.325 127.011C105.509 125.192 105.236 123.176 105.539 121.205C105.843 119.235 106.709 117.394 108.034 115.904V115.896ZM161.511 112.436H173.638C176.242 112.434 178.75 113.416 180.662 115.184C182.573 116.952 183.746 119.376 183.947 121.972C183.947 122.686 183.91 123.429 183.876 124.206C183.533 126.678 182.308 128.942 180.426 130.58C178.545 132.219 176.134 133.121 173.638 133.121H161.511C158.768 133.121 156.137 132.031 154.198 130.092C152.258 128.152 151.168 125.521 151.168 122.778C151.168 120.035 152.258 117.405 154.198 115.465C156.137 113.525 158.768 112.436 161.511 112.436ZM200.564 119.364V137.421C200.558 138.531 200.113 139.594 199.326 140.377C198.54 141.16 197.475 141.599 196.365 141.599H185.803C187.166 135.784 187.948 129.848 188.138 123.879C188.172 123.459 188.184 123.039 188.176 122.619C188.252 119.49 188.176 116.925 188.071 115.211H196.398C197.5 115.217 198.556 115.655 199.338 116.432C200.119 117.209 200.564 118.262 200.576 119.364H200.564ZM194.374 47.2848C197.333 47.2856 200.225 48.1638 202.685 49.8083C205.145 51.4529 207.062 53.7899 208.194 56.5239C209.326 59.2579 209.621 62.2661 209.044 65.1681C208.466 68.0701 207.041 70.7357 204.948 72.8277C202.855 74.9197 200.189 76.3443 197.287 76.9212C194.385 77.4982 191.377 77.2017 188.643 76.0691C185.91 74.9366 183.573 73.0189 181.929 70.5585C180.285 68.0981 179.408 65.2056 179.408 62.2466C179.413 58.2791 180.991 54.4755 183.797 51.6704C186.603 48.8654 190.407 47.2881 194.374 47.2848ZM111.746 72.6859C119.8 64.468 130.861 60.2982 144.622 60.2814C158.383 60.2646 169.439 64.4806 177.497 72.6901C190.036 85.4851 191.934 104.718 192.195 110.991H186.072C177.111 108.997 162.624 89.7893 157.77 82.5078C157.607 82.2642 157.395 82.0572 157.148 81.9003C156.901 81.7434 156.623 81.6399 156.333 81.5966C156.044 81.5527 155.75 81.5697 155.468 81.6463C155.186 81.723 154.923 81.8576 154.696 82.0417C137.382 96.1091 106.531 109.391 102.768 110.987H97.0488C97.3176 104.717 99.2114 85.4851 111.746 72.6859ZM92.8496 141.582C91.7439 141.576 90.6854 141.133 89.904 140.351C89.1225 139.569 88.6811 138.51 88.6756 137.404V119.348C88.6822 118.243 89.1241 117.185 89.9054 116.403C90.6868 115.622 91.7446 115.18 92.8496 115.174H100.916C100.681 119.747 100.547 130.379 103.297 141.566L92.8496 141.582ZM117.759 161.596C113.06 156.418 110.066 149.914 108.173 143.367C108.145 143.194 108.097 143.025 108.03 142.863C107.19 139.838 106.538 136.764 106.077 133.659C108.741 136.035 112.187 137.346 115.756 137.341H127.888C131.379 137.337 134.753 136.078 137.394 133.794C140.035 131.51 141.767 128.353 142.274 124.899H147.12C147.629 128.354 149.362 131.511 152.003 133.795C154.645 136.078 158.019 137.337 161.511 137.341H173.638C177.041 137.349 180.338 136.16 182.952 133.982C182.498 137.021 181.857 140.029 181.033 142.989C174.961 154.995 156.195 154.365 156.014 154.356C155.457 154.333 154.914 154.531 154.503 154.908C154.092 155.284 153.848 155.809 153.824 156.366C153.8 156.923 153.999 157.466 154.375 157.877C154.752 158.288 155.277 158.532 155.834 158.556C155.93 158.556 156.254 158.556 156.795 158.556C159.869 158.556 169.473 158.136 177.09 153.239C175.579 156.26 173.679 159.069 171.438 161.596C168.358 165.019 164.563 167.722 160.323 169.516C159.968 169.56 159.631 169.696 159.344 169.91C154.647 171.669 149.662 172.536 144.647 172.468C133.355 172.455 124.314 168.793 117.759 161.596ZM144.5 208.732L130.5 194.682V174.584C139.629 177.317 149.355 177.345 158.5 174.664V194.682L144.5 208.732Z" fill="#856E71"/>
<circle cx="143.5" cy="143.5" r="142" stroke="#856E71" stroke-width="3"/>
</svg>
